<?xml version="1.0" encoding="utf-8"?>
<!-- Generator: Adobe Illustrator 21.0.0, SVG Export Plug-In . SVG Version: 6.00 Build 0)  -->
<svg version="1.1" id="图层_1" xmlns="http://www.w3.org/2000/svg" xmlns:xlink="http://www.w3.org/1999/xlink" x="0px" y="0px"
	 viewBox="0 0 16 16" style="enable-background:new 0 0 16 16;" xml:space="preserve">
<style type="text/css">
	.st0{fill:#E7372D;}
</style>
<title>警示</title>
<desc>Created with Sketch.</desc>
<g id="B01_添加订单_不按揭" transform="translate(-82.000000, -199.000000)">
	<path id="警示" class="st0" d="M90,215c-1.4,0-2.8-0.4-4-1.1c-1.2-0.7-2.2-1.7-2.9-2.9c-0.7-1.2-1.1-2.6-1.1-4
		c0-1.4,0.4-2.8,1.1-4c0.7-1.2,1.7-2.2,2.9-2.9c1.2-0.7,2.6-1.1,4-1.1c1.4,0,2.8,0.4,4,1.1c1.2,0.7,2.2,1.7,2.9,2.9
		c0.7,1.2,1.1,2.6,1.1,4c0,1.4-0.4,2.8-1.1,4c-0.7,1.2-1.7,2.2-2.9,2.9C92.8,214.6,91.4,215,90,215z M90,212c0.3,0,0.5-0.1,0.7-0.3
		c0.2-0.2,0.3-0.4,0.3-0.7c0-0.3-0.1-0.5-0.3-0.7S90.3,210,90,210s-0.5,0.1-0.7,0.3S89,210.7,89,211c0,0.3,0.1,0.5,0.3,0.7
		C89.5,211.9,89.7,212,90,212z M90,202c-0.6,0-1,0.2-1.4,0.6c-0.4,0.4-0.6,0.9-0.6,1.4l1,4c0,0.3,0.1,0.5,0.3,0.7
		c0.2,0.2,0.4,0.3,0.7,0.3s0.5-0.1,0.7-0.3c0.2-0.2,0.3-0.4,0.3-0.7l1-4c0-0.6-0.2-1-0.6-1.4C91,202.2,90.5,202,90,202L90,202z"/>
</g>
</svg>
