<?xml version="1.0" encoding="utf-8"?>
<!-- Generator: Adobe Illustrator 21.0.0, SVG Export Plug-In . SVG Version: 6.00 Build 0)  -->
<svg version="1.1" id="图层_1" xmlns="http://www.w3.org/2000/svg" xmlns:xlink="http://www.w3.org/1999/xlink" x="0px" y="0px"
	 viewBox="0 0 20 20" style="enable-background:new 0 0 20 20;" xml:space="preserve">
<style type="text/css">
	.st0{fill:#999999;}
</style>
<title>calendar</title>
<desc>Created with Sketch.</desc>
<g id="Artboard-2" transform="translate(-344.000000, -474.000000)">
	<path id="calendar" class="st0" d="M362.5,481v-2.5c0-0.6-0.5-1-1-1H359v1c0,0.6-0.4,1-1,1c-0.6,0-1-0.5-1-1v-1h-6v1
		c0,0.6-0.4,1-1,1c-0.6,0-1-0.5-1-1v-1h-2.5c-0.6,0-1,0.4-1,1v2.5H362.5z M362.5,482.5h-17v9c0,0.6,0.5,1,1,1h15c0.6,0,1-0.4,1-1
		V482.5z M359,476h2.5c1.4,0,2.5,1.1,2.5,2.5v13c0,1.4-1.1,2.5-2.5,2.5h-15c-1.4,0-2.5-1.1-2.5-2.5v-13c0-1.4,1.1-2.5,2.5-2.5h2.5
		v-1c0-0.6,0.4-1,1-1c0.6,0,1,0.5,1,1v1h6v-1c0-0.6,0.4-1,1-1c0.6,0,1,0.5,1,1V476z M348.8,486.5c-0.7,0-1.2-0.6-1.2-1.2
		s0.6-1.2,1.2-1.2s1.2,0.6,1.2,1.2S349.4,486.5,348.8,486.5z M348.8,491c-0.7,0-1.2-0.6-1.2-1.2s0.6-1.2,1.2-1.2s1.2,0.6,1.2,1.2
		S349.4,491,348.8,491z M359.2,486.5c-0.7,0-1.2-0.6-1.2-1.2s0.6-1.2,1.2-1.2s1.2,0.6,1.2,1.2S359.9,486.5,359.2,486.5z M354,486.5
		c-0.7,0-1.2-0.6-1.2-1.2s0.6-1.2,1.2-1.2s1.2,0.6,1.2,1.2S354.7,486.5,354,486.5z M354,491c-0.7,0-1.2-0.6-1.2-1.2s0.6-1.2,1.2-1.2
		s1.2,0.6,1.2,1.2S354.7,491,354,491z"/>
</g>
</svg>
