<?xml version="1.0" encoding="utf-8"?>
<!-- Generator: Adobe Illustrator 21.0.0, SVG Export Plug-In . SVG Version: 6.00 Build 0)  -->
<svg version="1.1" id="图层_1" xmlns="http://www.w3.org/2000/svg" xmlns:xlink="http://www.w3.org/1999/xlink" x="0px" y="0px"
	 viewBox="0 0 102 102" style="enable-background:new 0 0 102 102;" xml:space="preserve">
<style type="text/css">
	.st0{fill:#B0B0B0;}
</style>
<title>fail</title>
<desc>Created with Sketch.</desc>
<path id="fail" class="st0" d="M68,45h-3c-1.1,0-2-0.9-2-2c0-1.1,0.9-2,2-2h16c1.1,0,2,0.9,2,2c0,1.1-0.9,2-2,2h-1v43
	c11-8.6,18-22,18-37C98,25,77,4,51,4S4,25,4,51c0,15,7,28.4,18,37V45h-1c-1.1,0-2-0.9-2-2c0-1.1,0.9-2,2-2h16c1.1,0,2,0.9,2,2
	c0,1.1-0.9,2-2,2h-3v46.1c2.3,0.5,4,2.5,4,4.9c0,0.1,0,0.1,0,0.2c4.1,1.2,8.5,1.8,13,1.8s8.9-0.6,13-1.8c0-0.1,0-0.1,0-0.2
	c0-2.4,1.7-4.4,4-4.9V45z M77,45h-6v48.6L68.6,94c-0.9,0.2-1.6,1-1.6,2c0,1.1,0.9,2,2,2h10c1.1,0,2-0.9,2-2c0-1-0.7-1.8-1.6-2
	L77,93.6V45z M65.8,99.8c-4.7,1.4-9.6,2.2-14.8,2.2s-10.1-0.8-14.8-2.2c-0.9,0.7-2,1.2-3.2,1.2H23c-2.8,0-5-2.2-5-5
	c0-1.8,0.9-3.4,2.3-4.2C8,82.5,0,67.7,0,51C0,22.8,22.8,0,51,0s51,22.8,51,51c0,16.7-8,31.5-20.3,40.8c1.4,0.9,2.3,2.5,2.3,4.2
	c0,2.8-2.2,5-5,5H69C67.8,101,66.6,100.6,65.8,99.8z M31,45h-6v48.6L22.6,94c-0.9,0.2-1.6,1-1.6,2c0,1.1,0.9,2,2,2h10
	c1.1,0,2-0.9,2-2c0-1-0.7-1.8-1.6-2L31,93.6V45z M19.2,33c-0.6,0.1-1.1-0.3-1.2-0.9s0.3-1.1,0.9-1.2c6-0.9,11.4-4,15.3-8.6
	c0.4-0.4,1-0.5,1.4-0.1c0.4,0.4,0.5,1,0.1,1.4C31.5,28.7,25.7,32,19.2,33z M82.8,33c-6.5-1-12.4-4.3-16.6-9.3
	c-0.4-0.4-0.3-1.1,0.1-1.4c0.4-0.4,1.1-0.3,1.4,0.1C71.7,27,77.1,30,83.1,31c0.6,0.1,0.9,0.6,0.9,1.2C83.9,32.7,83.4,33.1,82.8,33z
	 M62,66.6c0,0.8-0.6,1.4-1.4,1.4c-0.8,0-1.4-0.6-1.4-1.4c0-4.3-3.6-7.8-8.1-7.8s-8.1,3.5-8.1,7.8c0,0.8-0.6,1.4-1.4,1.4
	c-0.8,0-1.4-0.6-1.4-1.4C40,60.8,44.9,56,51,56S62,60.8,62,66.6z"/>
</svg>
