<?xml version="1.0" encoding="utf-8"?>
<!-- Generator: Adobe Illustrator 21.0.0, SVG Export Plug-In . SVG Version: 6.00 Build 0)  -->
<svg version="1.1" id="图层_1" xmlns="http://www.w3.org/2000/svg" xmlns:xlink="http://www.w3.org/1999/xlink" x="0px" y="0px"
	 viewBox="0 0 18 17" style="enable-background:new 0 0 18 17;" xml:space="preserve">
<style type="text/css">
	.st0{fill:#00A299;}
</style>
<title>house</title>
<desc>Created with Sketch.</desc>
<g id="Artboard-2" transform="translate(-151.000000, -450.000000)">
	<path id="house" class="st0" d="M166.8,457.2v7.6c0,1.3-1,2.3-2.3,2.3h-3.4v-7.4c0-0.3-0.3-0.6-0.6-0.6h-1.1
		c-0.3,0-0.6,0.3-0.6,0.6v7.4h-3.4c-1.2,0-2.3-1-2.3-2.3v-7.6l-1.3,1.2c-0.2,0.2-0.6,0.2-0.8-0.1c-0.2-0.3-0.2-0.6,0.1-0.9l8-7.1
		c0.4-0.4,1.1-0.4,1.6,0l8,7.1c0.2,0.2,0.3,0.6,0.1,0.9c-0.2,0.3-0.6,0.3-0.8,0.1L166.8,457.2z M165.6,456.2l-5.6-4.9
		c0,0-0.1,0-0.1,0l-5.6,4.9v8.6c0,0.6,0.5,1.1,1.1,1.1h2.2v-6.2c0-0.9,0.7-1.7,1.7-1.7h1.1c0.9,0,1.7,0.8,1.7,1.7v6.2h2.2
		c0.6,0,1.1-0.5,1.1-1.1V456.2z"/>
</g>
</svg>
