<?xml version="1.0" encoding="utf-8"?>
<!-- Generator: Adobe Illustrator 21.0.0, SVG Export Plug-In . SVG Version: 6.00 Build 0)  -->
<svg version="1.1" id="图层_1" xmlns="http://www.w3.org/2000/svg" xmlns:xlink="http://www.w3.org/1999/xlink" x="0px" y="0px"
	 viewBox="0 0 18 18" style="enable-background:new 0 0 18 18;" xml:space="preserve">
<style type="text/css">
	.st0{fill:#00A299;}
</style>
<title>information</title>
<desc>Created with Sketch.</desc>
<g id="Artboard-2" transform="translate(-87.000000, -449.000000)">
	<path id="information" class="st0" d="M96,458.5c-2.6,0-4.8-2.1-4.8-4.8s2.1-4.8,4.8-4.8s4.8,2.1,4.8,4.8S98.6,458.5,96,458.5z
		 M96,457.5c2.1,0,3.8-1.7,3.8-3.8S98.1,450,96,450s-3.8,1.7-3.8,3.8S93.9,457.5,96,457.5z M96,459.6c4.2,0,9,1.9,9,4.8v2.6H87v-2.6
		C87,461.5,91.8,459.6,96,459.6z M104,466v-1.6c0-2-4.3-3.8-8-3.8s-8,1.7-8,3.8v1.6H104z"/>
</g>
</svg>
