<?xml version="1.0" encoding="utf-8"?>
<!-- Generator: Adobe Illustrator 21.0.0, SVG Export Plug-In . SVG Version: 6.00 Build 0)  -->
<svg version="1.1" id="图层_1" xmlns="http://www.w3.org/2000/svg" xmlns:xlink="http://www.w3.org/1999/xlink" x="0px" y="0px"
	 viewBox="0 0 18 18" style="enable-background:new 0 0 18 18;" xml:space="preserve">
<style type="text/css">
	.st0{fill:#00A299;}
</style>
<title>marry</title>
<desc>Created with Sketch.</desc>
<g id="Artboard-2" transform="translate(-182.000000, -449.000000)">
	<path id="marry" class="st0" d="M196.8,451.5l-1.4-1.4l-2.2,0.4v5.3h5.3l0.4-2.2l-1.4-1.4l-1.1,1.1c-0.2,0.2-0.5,0.2-0.7,0
		c-0.2-0.2-0.2-0.5,0-0.7L196.8,451.5z M190.2,450.9c0.3,0,0.5,0.2,0.5,0.5c0,0.3-0.2,0.5-0.5,0.5c-1.9,0-3.7,0.7-5.1,2.1
		c-2.7,2.7-2.7,7.2,0,10s7.2,2.7,10,0c1.4-1.4,2.1-3.2,2.1-5.1c0-0.3,0.2-0.5,0.5-0.5c0.3,0,0.5,0.2,0.5,0.5c0,2.2-0.8,4.3-2.4,5.8
		c-3.1,3.1-8.2,3.1-11.4,0c-3.1-3.1-3.1-8.2,0-11.4C185.9,451.7,188,450.9,190.2,450.9z M195.7,449l4.3,4.3l-0.7,3.6h-7.1v-7.1
		L195.7,449z"/>
</g>
</svg>
