<?xml version="1.0" encoding="utf-8"?>
<!-- Generator: Adobe Illustrator 21.0.0, SVG Export Plug-In . SVG Version: 6.00 Build 0)  -->
<svg version="1.1" id="图层_1" xmlns="http://www.w3.org/2000/svg" xmlns:xlink="http://www.w3.org/1999/xlink" x="0px" y="0px"
	 viewBox="0 0 14 16" style="enable-background:new 0 0 14 16;" xml:space="preserve">
<style type="text/css">
	.st0{fill:#00A299;}
</style>
<title>order</title>
<desc>Created with Sketch.</desc>
<g id="Artboard-2" transform="translate(-82.000000, -321.000000)">
	<path id="order" class="st0" d="M93,322h1c1.1,0,2,0.9,2,2v11c0,1.1-0.9,2-2,2H84c-1.1,0-2-0.9-2-2v-11c0-1.1,0.9-2,2-2h1v-0.5
		c0-0.3,0.2-0.5,0.5-0.5c0.3,0,0.5,0.2,0.5,0.5v0.5h6v-0.5c0-0.3,0.2-0.5,0.5-0.5c0.3,0,0.5,0.2,0.5,0.5V322z M93,323v0.5
		c0,0.3-0.2,0.5-0.5,0.5c-0.3,0-0.5-0.2-0.5-0.5V323h-6v0.5c0,0.3-0.2,0.5-0.5,0.5c-0.3,0-0.5-0.2-0.5-0.5V323h-1c-0.6,0-1,0.4-1,1
		v11c0,0.5,0.4,1,1,1h10c0.6,0,1-0.4,1-1v-11c0-0.5-0.4-1-1-1H93z M85,326.5c0-0.3,0.2-0.5,0.5-0.5h7c0.3,0,0.5,0.2,0.5,0.5
		c0,0.3-0.2,0.5-0.5,0.5h-7C85.2,327,85,326.8,85,326.5z M85,329.5c0-0.3,0.2-0.5,0.5-0.5h7c0.3,0,0.5,0.2,0.5,0.5
		c0,0.3-0.2,0.5-0.5,0.5h-7C85.2,330,85,329.8,85,329.5z M85,332.5c0-0.3,0.2-0.5,0.5-0.5h7c0.3,0,0.5,0.2,0.5,0.5
		c0,0.3-0.2,0.5-0.5,0.5h-7C85.2,333,85,332.8,85,332.5z"/>
</g>
</svg>
