<?xml version="1.0" encoding="utf-8"?>
<!-- Generator: Adobe Illustrator 21.0.0, SVG Export Plug-In . SVG Version: 6.00 Build 0)  -->
<svg version="1.1" id="图层_1" xmlns="http://www.w3.org/2000/svg" xmlns:xlink="http://www.w3.org/1999/xlink" x="0px" y="0px"
	 viewBox="0 0 22 20" style="enable-background:new 0 0 22 20;" xml:space="preserve">
<style type="text/css">
	.st0{fill:#00A299;}
</style>
<title>store</title>
<desc>Created with Sketch.</desc>
<g id="Artboard-2" transform="translate(-53.000000, -666.000000)">
	<path id="store" class="st0" d="M54.5,668.7c-0.5-0.2-0.8-0.7-0.8-1.3c0-0.8,0.6-1.4,1.4-1.4h17.7c0.8,0,1.4,0.6,1.4,1.4
		c0,0.6-0.3,1-0.8,1.3l1.5,4c0,0.1,0,0.1,0,0.2c0,1.1-0.6,2-1.5,2.6v9.3c0,0.6-0.6,1.3-1.2,1.3H55.7c-0.6,0-1.2-0.7-1.2-1.3v-9.3
		c-0.9-0.6-1.5-1.5-1.5-2.6c0-0.1,0-0.1,0-0.2L54.5,668.7z M71.9,668.9H56l-1.5,4.1c0,1,0.9,1.8,1.8,1.8c1,0,1.8-0.8,1.8-1.9
		c0-0.8,1.5-0.8,1.5,0c0,1.1,0.8,1.9,1.8,1.9c1,0,1.8-0.8,1.8-1.9c0-0.8,1.5-0.8,1.5,0c0,1.1,0.8,1.9,1.8,1.9c1,0,1.8-0.8,1.8-1.9
		c0-0.8,1.5-0.8,1.5,0c0,1.1,0.8,1.9,1.8,1.9c0.9,0,1.8-0.8,1.8-1.8L71.9,668.9z M72,676c-0.1,0-0.2,0-0.3,0c-1,0-2-0.4-2.6-1.1
		c-0.6,0.7-1.5,1.1-2.6,1.1c-1,0-1.9-0.4-2.5-1.1v9.6h8V676z M56,676v8.4h6.5v-8.6c-0.3,0.1-0.7,0.2-1.1,0.2c-1,0-1.9-0.4-2.5-1.1
		c-0.6,0.7-1.5,1.1-2.6,1.1C56.2,676,56.1,676,56,676z M59.6,678.9c0-0.4,0.3-0.7,0.7-0.7c0.4,0,0.7,0.3,0.7,0.7v2.1
		c0,0.4-0.3,0.7-0.7,0.7c-0.4,0-0.7-0.3-0.7-0.7V678.9z"/>
</g>
</svg>
