<?xml version="1.0" encoding="utf-8"?>
<!-- Generator: Adobe Illustrator 21.0.0, SVG Export Plug-In . SVG Version: 6.00 Build 0)  -->
<svg version="1.1" id="图层_1" xmlns="http://www.w3.org/2000/svg" xmlns:xlink="http://www.w3.org/1999/xlink" x="0px" y="0px"
	 viewBox="0 0 122 126" style="enable-background:new 0 0 122 126;" xml:space="preserve">
<style type="text/css">
	.st0{fill:#E2E5E7;}
	.st1{fill:#B0B7BD;}
	.st2{fill:#CAD1D8;}
	.st3{fill:#00A299;}
</style>
<title>success</title>
<desc>Created with Sketch.</desc>
<g id="Artboard-2" transform="translate(-64.000000, -282.000000)">
	<g id="success" transform="translate(64.000000, 282.000000)">
		<path id="Combined-Shape" class="st0" d="M95,59.1V30.2L65,0H10C4.5,0,0,4.5,0,10.1v105.9c0,5.6,4.5,10.1,10,10.1h60.3
			C61,119.3,55,108.3,55,96c0-20.4,16.6-37,37-37C93,59,94,59,95,59.1z"/>
		<path id="Rectangle-2" class="st1" d="M65,0l30,30H75c-5.5,0-10-4.5-10-10V0z"/>
		<polygon id="Rectangle-54" class="st2" points="75,30 95,30 95,50 		"/>
		<path id="Rectangle-56" class="st2" d="M20,18h32c2.2,0,4,1.8,4,4l0,0c0,2.2-1.8,4-4,4H20c-2.2,0-4-1.8-4-4l0,0
			C16,19.8,17.8,18,20,18z"/>
		<path id="Rectangle-56-Copy" class="st2" d="M20,34h32c2.2,0,4,1.8,4,4l0,0c0,2.2-1.8,4-4,4H20c-2.2,0-4-1.8-4-4l0,0
			C16,35.8,17.8,34,20,34z"/>
		<path id="Rectangle-56-Copy-2" class="st2" d="M20,50h56c2.2,0,4,1.8,4,4l0,0c0,2.2-1.8,4-4,4H20c-2.2,0-4-1.8-4-4l0,0
			C16,51.8,17.8,50,20,50z"/>
		<path id="Combined-Shape_1_" class="st2" d="M70.3,66H20c-2.2,0-4,1.8-4,4c0,2.2,1.8,4,4,4h42.2C64.5,70.9,67.2,68.2,70.3,66z"/>
		<path id="Combined-Shape_2_" class="st2" d="M57.7,82H20c-2.2,0-4,1.8-4,4c0,2.2,1.8,4,4,4h35.5C55.9,87.2,56.7,84.5,57.7,82z"/>
		<path id="Combined-Shape_3_" class="st2" d="M55.1,98H20c-2.2,0-4,1.8-4,4c0,2.2,1.8,4,4,4h36.4C55.6,103.4,55.2,100.8,55.1,98z"
			/>
		<path id="Combined-Shape-Copy-3" class="st3" d="M92,126c-16.6,0-30-13.4-30-30s13.4-30,30-30s30,13.4,30,30S108.6,126,92,126z
			 M103.8,86.1l-15.2,14.9l-8.4-8.3c-0.9-0.9-2.4-0.9-3.4,0c-0.9,0.9-0.9,2.4,0,3.3l10.1,9.9c0.9,0.9,2.4,0.9,3.4,0l16.9-16.5
			c0.9-0.9,0.9-2.4,0-3.3C106.3,85.2,104.7,85.2,103.8,86.1z"/>
	</g>
</g>
</svg>
