<?xml version="1.0" encoding="utf-8"?>
<!-- Generator: Adobe Illustrator 21.0.0, SVG Export Plug-In . SVG Version: 6.00 Build 0)  -->
<svg version="1.1" id="图层_1" xmlns="http://www.w3.org/2000/svg" xmlns:xlink="http://www.w3.org/1999/xlink" x="0px" y="0px"
	 viewBox="0 0 16 16" style="enable-background:new 0 0 16 16;" xml:space="preserve">
<style type="text/css">
	.st0{fill:#999999;}
</style>
<title>telephone_16</title>
<desc>Created with Sketch.</desc>
<g id="Artboard-2" transform="translate(-132.000000, -556.000000)">
	<path id="telephone_16" class="st0" d="M137.8,560.3l0.4-0.4c0.3-0.3,0.4-0.6,0.4-1s-0.1-0.7-0.4-1l-1.5-1.5c-0.5-0.5-1.5-0.5-2,0
		l-0.4,0.4L137.8,560.3 M144.1,565.8l-0.4,0.4l3.5,3.5l0.4-0.4c0.3-0.3,0.4-0.6,0.4-1c0-0.4-0.1-0.7-0.4-1l-1.5-1.5
		C145.6,565.3,144.6,565.3,144.1,565.8 M133,558.1c-0.2,0.2-3.5,3.7,2.8,10.1c3.2,3.2,5.7,3.9,7.2,3.9c1.7,0,2.6-0.8,2.9-1l0.3-0.3
		l-3.5-3.5l-0.6,0.6c-0.2,0.2-0.5,0.2-0.7,0l-5.2-5.2c-0.1-0.1-0.1-0.2-0.1-0.3s0-0.2,0.1-0.3l0.6-0.6l-3.5-3.5L133,558.1"/>
</g>
</svg>
