<?xml version="1.0" encoding="utf-8"?>
<!-- Generator: Adobe Illustrator 21.0.0, SVG Export Plug-In . SVG Version: 6.00 Build 0)  -->
<svg version="1.1" id="图层_1" xmlns="http://www.w3.org/2000/svg" xmlns:xlink="http://www.w3.org/1999/xlink" x="0px" y="0px"
	 viewBox="0 0 18 18" style="enable-background:new 0 0 18 18;" xml:space="preserve">
<style type="text/css">
	.st0{fill:#00A299;}
</style>
<title>work</title>
<desc>Created with Sketch.</desc>
<g id="Artboard-2" transform="translate(-119.000000, -449.000000)">
	<path id="work" class="st0" d="M124.6,459H120v5.5c0,0.8,0.7,1.5,1.5,1.5h13c0.8,0,1.5-0.7,1.5-1.5V459h-4.6
		c-0.4,1.4-1.8,2.5-3.4,2.5S125.1,460.4,124.6,459z M125.7,459c0.4,0.9,1.3,1.5,2.3,1.5s1.9-0.6,2.3-1.5H125.7z M123,453v-1.5
		c0-1.4,1.1-2.5,2.5-2.5h5c1.4,0,2.5,1.1,2.5,2.5v1.5h1.5c1.4,0,2.5,1.1,2.5,2.5v9c0,1.4-1.1,2.5-2.5,2.5h-13
		c-1.4,0-2.5-1.1-2.5-2.5v-9c0-1.4,1.1-2.5,2.5-2.5H123z M124,453h8v-1.5c0-0.8-0.7-1.5-1.5-1.5h-5c-0.8,0-1.5,0.7-1.5,1.5V453z
		 M136,458v-2.5c0-0.8-0.7-1.5-1.5-1.5h-13c-0.8,0-1.5,0.7-1.5,1.5v2.5H136z"/>
</g>
</svg>
