<?xml version="1.0" encoding="utf-8"?>
<!-- Generator: Adobe Illustrator 21.0.0, SVG Export Plug-In . SVG Version: 6.00 Build 0)  -->
<svg version="1.1" id="图层_1" xmlns="http://www.w3.org/2000/svg" xmlns:xlink="http://www.w3.org/1999/xlink" x="0px" y="0px"
	 viewBox="0 0 14 16" style="enable-background:new 0 0 14 16;" xml:space="preserve">
<style type="text/css">
	.st0{fill:#999999;}
</style>
<title>code_n</title>
<desc>Created with Sketch.</desc>
<g id="Artboard-2" transform="translate(-178.000000, -73.000000)">
	<path id="code_n" class="st0" d="M192,76.4c0,0,0.1,1.8-0.1,4.8c-0.6,5.1-4.6,7.8-6.9,7.8c-2.3,0-7-3.9-7-7.9c-0.1-2.2,0-4.7,0-4.7
		c0-0.5,0.4-0.9,0.9-1c0,0,1.2-0.1,2.8-0.7c1.7-0.5,2.6-1.5,2.6-1.5c0.4-0.3,1-0.3,1.4,0c0,0,1.3,1,2.6,1.5c1,0.4,2.9,0.7,2.9,0.7
		C191.6,75.4,192,75.9,192,76.4z M182.7,80.3c-0.4-0.4-1-0.3-1.4,0.1c-0.4,0.4-0.3,1,0.1,1.4l2.2,2c0.4,0.4,1,0.3,1.4-0.1l3.8-4
		c0.4-0.4,0.4-1,0-1.4c-0.4-0.4-1-0.4-1.4,0l-3.1,3.3L182.7,80.3z"/>
</g>
</svg>
