<?xml version="1.0" encoding="utf-8"?>
<!-- Generator: Adobe Illustrator 21.0.0, SVG Export Plug-In . SVG Version: 6.00 Build 0)  -->
<svg version="1.1" id="图层_1" xmlns="http://www.w3.org/2000/svg" xmlns:xlink="http://www.w3.org/1999/xlink" x="0px" y="0px"
	 viewBox="0 0 16 16" style="enable-background:new 0 0 16 16;" xml:space="preserve">
<style type="text/css">
	.st0{fill:#00A299;}
</style>
<title>company_s</title>
<desc>Created with Sketch.</desc>
<g id="Artboard-2" transform="translate(-248.000000, -108.000000)">
	<path id="company_s" class="st0" d="M259,116.9h5V116h-16v0.9h5c0.4,1.3,1.6,2.2,3,2.2C257.4,119.1,258.6,118.2,259,116.9z
		 M258,116.9c-0.3,0.8-1.1,1.3-2,1.3s-1.7-0.5-2-1.3H258z M251.6,111.6v-1.3c0-1.2,1-2.2,2.2-2.2h4.4c1.2,0,2.2,1,2.2,2.2v1.3h1.3
		c1.2,0,2.2,1,2.2,2.2v8c0,1.2-1,2.2-2.2,2.2h-11.6c-1.2,0-2.2-1-2.2-2.2v-8c0-1.2,1-2.2,2.2-2.2H251.6z M252.4,111.6h7.1v-1.3
		c0-0.7-0.6-1.3-1.3-1.3h-4.4c-0.7,0-1.3,0.6-1.3,1.3V111.6z"/>
</g>
</svg>
