<?xml version="1.0" encoding="utf-8"?>
<!-- Generator: Adobe Illustrator 21.0.0, SVG Export Plug-In . SVG Version: 6.00 Build 0)  -->
<svg version="1.1" id="图层_1" xmlns="http://www.w3.org/2000/svg" xmlns:xlink="http://www.w3.org/1999/xlink" x="0px" y="0px"
	 viewBox="0 0 100 116" style="enable-background:new 0 0 100 116;" xml:space="preserve">
<style type="text/css">
	.st0{fill:#FFFFFF;}
	.st1{fill:#F9BC1D;}
	.st2{fill:#00A299;}
	.st3{filter:url(#Adobe_OpacityMaskFilter);}
	.st4{mask:url(#mask-2);fill:#00A299;}
</style>
<g>
	<path id="path-3" class="st0" d="M18.4,81.7H23v-2.3h-4.6V81.7z M10.8,98.1v-2.8l5.4-3.6c-0.4-1.7-0.8-3.8-1.2-6.4h-4v-2.2h3.6
		l-0.6-4h2.3l0.6,4h6v2.2h-5.6c0.3,2.1,0.6,3.8,0.9,5c1-0.7,1.6-1.2,1.9-1.7c0.1-0.2,0.2-0.6,0.4-1h2.3c0,0.4-0.1,0.8-0.3,1.3
		c-0.3,0.8-0.8,1.5-1.4,2.1c-0.5,0.5-1.2,1-2.2,1.7c0.7,1.6,1.4,2.8,2.1,3.6c0.5,0.6,1.2,1,2.1,1.4v2.3c-1.1-0.3-2-0.6-2.6-1
		c-0.9-0.6-1.6-1.5-2.3-2.5C17.8,95.8,17.4,95,17,94L10.8,98.1z M0,93.6v-2.4c0.8-0.1,1.5-0.2,2-0.4c0.6-0.2,1.4-0.5,2.4-1.1v-6.2H0
		v-2.3h4.4v-2.1h2.3v2.1h3.7v2.3H6.7v5c1.2-0.4,2.3-0.8,3.5-0.9v2.2c-0.9,0.1-1.6,0.3-2.1,0.5c-0.3,0.1-0.8,0.4-1.4,0.7v4.7
		c0,1.3-0.2,2.2-0.5,2.7c-0.4,0.6-1,1-1.6,1.2c-0.4,0.1-0.9,0.2-1.6,0.2H1.5v-2.3h1c0.7,0,1.2-0.1,1.5-0.4c0.1-0.1,0.2-0.3,0.3-0.4
		c0.1-0.3,0.1-0.7,0.1-1.2v-3.2c-1.1,0.4-1.8,0.7-2.2,0.8C1.8,93.4,1,93.5,0,93.6L0,93.6z"/>
</g>
<title>logo</title>
<desc>Created with Sketch.</desc>
<g id="Artboard-2" transform="translate(-426.000000, -58.000000)">
	<g id="logo" transform="translate(426.000000, 58.000000)">
		<g id="Page-1" transform="translate(10.000000, 0.000000)">
			<path id="Fill-1" class="st1" d="M39.7,31.1l-5-5l5-5l5,5L39.7,31.1z M48.3,17.5c-4.7-4.7-12.4-4.7-17.1,0
				c-4.7,4.8-4.7,12.5,0,17.2s12.4,4.8,17.1,0C53,30,53,22.2,48.3,17.5L48.3,17.5z"/>
			<path id="Fill-3" class="st2" d="M17.2,13c-0.9,1.6-0.4,3.7,1.2,4.7c1.6,0.9,3.7,0.4,4.6-1.3c0.9-1.6,0.4-3.7-1.2-4.7
				C20.3,10.8,18.2,11.3,17.2,13"/>
			<path id="Fill-5" class="st2" d="M31.4,4.7c-0.9-1.6-3-2.2-4.6-1.3c-1.6,0.9-2.2,3-1.2,4.7s3,2.2,4.6,1.3
				C31.8,8.4,32.4,6.3,31.4,4.7"/>
			<path id="Fill-7" class="st2" d="M43.2,3.4c0-1.9-1.5-3.4-3.4-3.4c-1.9,0-3.4,1.5-3.4,3.4c0,1.9,1.5,3.4,3.4,3.4
				C41.7,6.8,43.2,5.3,43.2,3.4"/>
			<path id="Fill-9" class="st2" d="M49.4,9.5c1.6,0.9,3.7,0.4,4.6-1.3c0.9-1.6,0.4-3.7-1.2-4.7c-1.6-0.9-3.7-0.4-4.6,1.3
				C47.2,6.4,47.8,8.5,49.4,9.5"/>
			<path id="Fill-11" class="st2" d="M61,17.8c1.6-0.9,2.2-3,1.2-4.7s-3-2.2-4.6-1.3c-1.6,0.9-2.2,3-1.2,4.7
				C57.3,18.2,59.4,18.7,61,17.8"/>
			<g id="Group-15" transform="translate(43.809524, 22.573051)">
				<g id="Clip-14">
				</g>
				<defs>
					<filter id="Adobe_OpacityMaskFilter" filterUnits="userSpaceOnUse" x="0.2" y="0" width="35.4" height="43">
						<feColorMatrix  type="matrix" values="1 0 0 0 0  0 1 0 0 0  0 0 1 0 0  0 0 0 1 0"/>
					</filter>
				</defs>
				<mask maskUnits="userSpaceOnUse" x="0.2" y="0" width="35.4" height="43" id="mask-2">
					<g class="st3">
						<polygon id="path-1" class="st0" points="0.2,43 35.6,43 35.6,21.5 35.6,0 0.2,0 						"/>
					</g>
				</mask>
				<path id="Fill-13" class="st4" d="M35.6,3.5C35.6,3.5,35.6,3.5,35.6,3.5C35.6,3.4,35.6,3.4,35.6,3.5L35.6,3.5l0-0.1h0
					c0-1.9-1.5-3.4-3.4-3.4c-1.9,0-3.4,1.5-3.4,3.4h0c0,0,0,0.1,0,0.1c0,14.3-9.1,26.4-21.8,31V27c8.8-4.2,14.8-13.1,14.9-23.5
					c0,0,0,0,0-0.1v0v0v0l0,0c0-1.9-1.5-3.4-3.4-3.4s-3.4,1.5-3.4,3.4h0c0,0,0,0.1,0,0.1c0,6.4-3.2,12.1-8,15.6
					c-2,1.4-4.3,2.5-6.8,3.1v7v7V43c2.3-0.3,4.6-0.7,6.8-1.4C23.5,36.9,35.5,21.6,35.6,3.5L35.6,3.5z"/>
			</g>
			<g id="Group-18" transform="translate(0.000000, 22.573051)">
				<path id="Fill-16" class="st2" d="M20.5,3.5c0,0,0-0.1,0-0.1h0C20.5,1.5,19,0,17.1,0s-3.4,1.5-3.4,3.4l0,0v0v0v0
					c0,0,0,0.1,0,0.1c0,10.3,6.1,19.3,14.8,23.4v7.5C15.9,29.9,6.9,17.8,6.8,3.5h0c0,0,0-0.1,0-0.1h0C6.8,1.5,5.3,0,3.4,0
					C1.5,0,0,1.5,0,3.4h0v0v0c0,0,0,0,0,0c0,0,0,0.1,0,0.1h0c0.1,18.1,12.1,33.3,28.5,38.1c2.2,0.6,4.5,1.1,6.8,1.4v-6.9v-7v-7
					c-2.5-0.6-4.8-1.7-6.8-3.1C23.7,15.6,20.6,9.9,20.5,3.5"/>
			</g>
		</g>
		<g id="Page-1_1_" transform="translate(0.000000, 79.000000)">
			<g id="Fill-1_1_">
				<path id="path-3_1_" class="st0" d="M18.4,2.7H23V0.5h-4.6V2.7z M10.8,19.1v-2.8l5.4-3.6c-0.4-1.7-0.8-3.8-1.2-6.4h-4V4.1h3.6
					l-0.6-4h2.3l0.6,4h6v2.2h-5.6c0.3,2.1,0.6,3.8,0.9,5c1-0.7,1.6-1.2,1.9-1.7c0.1-0.2,0.2-0.6,0.4-1h2.3c0,0.4-0.1,0.8-0.3,1.3
					c-0.3,0.8-0.8,1.5-1.4,2.1c-0.5,0.5-1.2,1-2.2,1.7c0.7,1.6,1.4,2.8,2.1,3.6c0.5,0.6,1.2,1,2.1,1.4v2.3c-1.1-0.3-2-0.6-2.6-1
					c-0.9-0.6-1.6-1.5-2.3-2.5C17.8,16.8,17.4,16,17,15L10.8,19.1z M0,14.6v-2.4c0.8-0.1,1.5-0.2,2-0.4c0.6-0.2,1.4-0.5,2.4-1.1V4.6
					H0V2.3h4.4V0.2h2.3v2.1h3.7v2.3H6.7v5C7.9,9.2,9,8.9,10.2,8.7v2.2c-0.9,0.1-1.6,0.3-2.1,0.5c-0.3,0.1-0.8,0.4-1.4,0.7v4.7
					c0,1.3-0.2,2.2-0.5,2.7c-0.4,0.6-1,1-1.6,1.2C4.1,20.9,3.6,21,2.9,21H1.5v-2.3h1c0.7,0,1.2-0.1,1.5-0.4c0.1-0.1,0.2-0.3,0.3-0.4
					c0.1-0.3,0.1-0.7,0.1-1.2v-3.2c-1.1,0.4-1.8,0.7-2.2,0.8C1.8,14.4,1,14.5,0,14.6L0,14.6z"/>
			</g>
			<path id="Fill-3_1_" class="st0" d="M34.4,20.9v-2.2c0.4-0.1,0.7-0.3,0.9-0.5c0.3-0.4,0.5-1.1,0.5-1.9V4.4c0-0.9,0.1-1.6,0.3-2
				c0.6-1.1,1.6-1.7,2.9-1.7h6c0.3,0,0.5,0,0.6-0.1c0.1-0.1,0.2-0.2,0.2-0.4h2.3c-0.1,0.8-0.3,1.3-0.7,1.8c-0.6,0.7-1.4,1.1-2.3,1.1
				h-5.6c-0.4,0-0.7,0.1-1,0.3c-0.3,0.2-0.5,0.5-0.5,0.9l0,1.3h6.6c1.1,0,1.8,0.2,2.4,0.6c0.5,0.4,0.7,0.9,0.7,1.7
				c0,0.8-0.3,2.1-1,3.8c-0.4,1.2-1.1,2.5-2.1,4c1.1,1.2,2.3,2.2,3.6,3.1l0,2.4c-1.9-1-3.5-2.2-5-3.8c-0.9,0.9-1.7,1.6-2.5,2.2
				c-0.6,0.5-1.4,1-2.4,1.5v-2.4c1.4-0.9,2.5-1.9,3.5-3c-0.9-1.4-1.6-2.6-2-3.5c-0.3-0.8-0.7-1.9-1.2-3.3H41c0.5,1.7,1.3,3.3,2.2,5
				c0.6-1,1-2,1.4-3c0.5-1.2,0.7-2,0.7-2.4c0-0.3-0.2-0.5-0.7-0.5h-6.7v8.6c0,1.5-0.4,2.7-1.1,3.6c-0.4,0.5-1,0.8-1.6,0.9
				C35.1,20.8,34.8,20.9,34.4,20.9L34.4,20.9z M28.6,6.7h2.3l0,11c0,0.4,0.1,0.6,0.2,0.7c0.1,0.1,0.3,0.2,0.6,0.2l2.2,0v2.3h-3
				c-0.8,0-1.4-0.2-1.8-0.6c-0.4-0.4-0.5-0.9-0.5-1.4V6.7z M25.5,8.8V6.5c0.4,0,0.7-0.2,0.9-0.5c0.2-0.3,0.4-0.9,0.5-1.7l0.8-4.3
				h2.4l-0.3,1.8h2.4c0.7,0,1.3,0.2,1.8,0.6c0.4,0.4,0.7,1,0.7,1.6c0,0.3-0.1,0.7-0.2,1.2l-0.6,2.6h-2.4l0.7-2.8
				c0-0.2,0.1-0.3,0.1-0.5c0-0.3-0.2-0.5-0.6-0.5l-2.4,0c-0.3,1.6-0.7,2.7-1.2,3.4c-0.4,0.5-0.9,0.9-1.5,1.1
				C26.4,8.7,26,8.7,25.5,8.8L25.5,8.8z"/>
			<path id="Fill-4" class="st0" d="M53.8,5.7H71c-0.3-0.6-0.7-1.3-1.1-2.1c-0.2-0.4-0.4-0.7-0.6-0.9c-0.2-0.1-0.5-0.2-1-0.2H56.7
				c-0.7,0-1.1,0.1-1.3,0.3C55.3,2.9,55,3.3,54.7,4C54.3,4.7,54,5.3,53.8,5.7L53.8,5.7z M50.9,20.8v-2.3h1.2v-3.8h2.3v3.8h6.8v-5.7
				h-9.5v-2.3h9.5V7.9h-9.5V6.7l-0.9,0.1V4.6c0.3,0,0.6,0,0.8-0.1c0.3-0.2,0.7-0.8,1.2-2c0.4-1,0.8-1.6,1.1-1.9
				c0.4-0.3,0.9-0.5,1.7-0.5h13.1c0.8,0,1.3,0.1,1.6,0.3c0.3,0.2,0.6,0.5,0.8,0.7c0.1,0.1,0.3,0.5,0.5,1c0.5,1.1,0.8,1.8,1.1,2.1
				c0.2,0.2,0.6,0.3,1.1,0.4v2.2L73,6.7v1.2h-9.5v2.7H73v2.3h-9.5v5.7h6.9v-3.8h2.3v3.8h1.2v2.3H50.9z"/>
			<path id="Fill-5_1_" class="st0" d="M95.7,12.6l0.5,0c0.3,0,0.5-0.1,0.6-0.2c0.1-0.1,0.1-0.3,0.1-0.6l0-6.6c0-0.6-0.3-0.9-1-0.9
				h-0.2V12.6z M93.5,12.6V4.3H93c-0.5,0-0.7,0.3-0.7,0.9v6.6c0,0.3,0.1,0.6,0.2,0.7c0.1,0.1,0.3,0.2,0.6,0.2L93.5,12.6z M89.8,20.8
				v-2.3h3.7v-3.6h-1c-0.6,0-1-0.1-1.3-0.1c-0.5-0.2-0.8-0.5-1.1-1C90,13.5,90,13.2,90,12.8V4.3c0-0.6,0.1-1.1,0.4-1.5
				C90.9,2.3,91.5,2,92.3,2h1.1V0.1l2.3,0v2h1.1c0.8,0,1.5,0.2,1.9,0.6c0.4,0.4,0.6,0.9,0.6,1.5l0,8.2c0,0.7-0.1,1.3-0.4,1.6
				c-0.4,0.6-1,0.8-1.6,0.8l-1.5,0v3.6c0.5,0,0.8-0.2,1.1-0.5c0.3-0.3,0.4-0.7,0.4-1.1v-0.8h2.3v1c0,2.4-1.2,3.6-3.7,3.6H89.8z
				 M79.5,17.3l0-2.3H80v-2.2h2.3V15h1v-2.2h2.2V15h0.5v2.3h-2.1v3.5h-2.3v-3.5H79.5z M85.8,5.1h-6.3c-0.2,0-0.4,0-0.5,0.1
				C79,5.3,79,5.5,79,5.7v0.5c0,0.2,0.1,0.4,0.2,0.5c0.1,0,0.3,0.1,0.6,0.1h6.1c0.3,0,0.5,0,0.6-0.1c0.1-0.1,0.1-0.2,0.1-0.5V5.8
				c0-0.2,0-0.4-0.1-0.5C86.4,5.2,86.2,5.1,85.8,5.1L85.8,5.1z M88.8,4.8v2.2c0,0.7-0.1,1.1-0.4,1.4c-0.3,0.3-0.8,0.4-1.5,0.4h-8.4
				c-0.6,0-1-0.1-1.3-0.4c-0.2-0.3-0.4-0.7-0.4-1.3V5c0-0.7,0.1-1.2,0.4-1.4c0.3-0.3,0.7-0.4,1.4-0.4h8c0.8,0,1.3,0.1,1.6,0.3
				C88.6,3.7,88.8,4.1,88.8,4.8L88.8,4.8z M76.5,20.8v-8.9c0-1.6,0.8-2.4,2.4-2.4h7.4c1.9,0,2.8,0.7,2.8,2.2v6.5
				c0,1.7-0.9,2.6-2.6,2.6c-0.2,0-0.5,0-1,0v-2.2c0.1,0,0.3,0,0.3,0c0.6,0,0.9-0.3,0.9-0.8l0-5c0-0.4-0.1-0.6-0.2-0.7
				c-0.2-0.2-0.4-0.2-0.8-0.2h-6.1c-0.4,0-0.6,0.1-0.8,0.2c-0.1,0.1-0.2,0.3-0.2,0.7v8.1H76.5z M76.5,2.4h12.6V0.1H76.5V2.4z"/>
			<path id="Fill-6" class="st0" d="M6.6,27.7c0.1,0,0.3,0,0.3,0.1C7,27.9,7.1,28,7.1,28.1c0,0.1-0.1,0.3-0.2,0.5l-4.8,7h4.4
				c0.2,0,0.3,0,0.4,0.1C7,35.7,7.1,35.8,7.1,36c0,0.2-0.1,0.3-0.2,0.4c-0.1,0.1-0.2,0.1-0.4,0.1H1.3c-0.2,0-0.3,0-0.4-0.1
				c-0.1-0.1-0.1-0.2-0.1-0.3c0-0.1,0-0.3,0.1-0.4l4.8-7H1.6c-0.1,0-0.3,0-0.4-0.1C1.1,28.5,1,28.4,1,28.2c0-0.3,0.2-0.5,0.5-0.5
				H6.6z"/>
			<path id="Fill-7_1_" class="st0" d="M13.1,32.4c0-0.7-0.1-1.2-0.4-1.5c-0.3-0.3-0.7-0.4-1.2-0.4c-0.2,0-0.5,0-0.7,0.1
				c-0.2,0.1-0.4,0.2-0.6,0.3c-0.2,0.1-0.3,0.3-0.5,0.6c-0.1,0.2-0.2,0.5-0.2,0.8v3.8c0,0.3-0.2,0.5-0.5,0.5c-0.1,0-0.3,0-0.4-0.1
				c-0.1-0.1-0.1-0.2-0.1-0.3v-8.7c0-0.2,0-0.3,0.1-0.3C8.8,27,8.9,27,9.1,27c0.3,0,0.5,0.2,0.5,0.5v3.4c0.1-0.2,0.2-0.3,0.3-0.4
				c0.1-0.1,0.3-0.3,0.5-0.4c0.2-0.1,0.4-0.2,0.6-0.3c0.2-0.1,0.5-0.1,0.7-0.1c0.3,0,0.6,0.1,0.9,0.1c0.3,0.1,0.5,0.2,0.8,0.4
				c0.2,0.2,0.4,0.4,0.5,0.7c0.1,0.3,0.2,0.7,0.2,1.1v4.1c0,0.3-0.2,0.5-0.5,0.5c-0.3,0-0.5-0.2-0.5-0.5V32.4z"/>
			<path id="Fill-8" class="st0" d="M16.4,33.2c0,0.8,0.2,1.5,0.6,1.9c0.4,0.5,0.9,0.7,1.5,0.7c0.3,0,0.6-0.1,0.9-0.2
				c0.2-0.1,0.4-0.3,0.6-0.5c0.2-0.2,0.3-0.5,0.4-0.8c0.1-0.3,0.1-0.7,0.1-1c0-0.4,0-0.7-0.1-1c-0.1-0.3-0.2-0.6-0.4-0.9
				s-0.4-0.4-0.6-0.6c-0.2-0.1-0.5-0.2-0.8-0.2c-0.4,0-0.7,0.1-0.9,0.2c-0.3,0.1-0.5,0.3-0.6,0.5c-0.2,0.2-0.3,0.5-0.4,0.8
				C16.5,32.4,16.4,32.8,16.4,33.2L16.4,33.2z M20.4,35.3c-0.2,0.4-0.5,0.8-0.8,1c-0.3,0.2-0.8,0.4-1.3,0.4c-0.4,0-0.8-0.1-1.2-0.2
				c-0.4-0.2-0.7-0.4-0.9-0.7c-0.3-0.3-0.4-0.7-0.6-1.1c-0.1-0.4-0.2-0.9-0.2-1.4c0-0.6,0.1-1.2,0.2-1.6c0.2-0.5,0.4-0.8,0.6-1.1
				c0.3-0.3,0.6-0.5,0.9-0.6c0.4-0.1,0.7-0.2,1.1-0.2c0.5,0,1,0.2,1.3,0.4c0.4,0.3,0.6,0.7,0.8,1.1v-0.9c0-0.1,0-0.3,0.1-0.4
				c0.1-0.1,0.2-0.2,0.4-0.2c0.2,0,0.3,0.1,0.4,0.2c0.1,0.1,0.1,0.2,0.1,0.4v5.8c0,0.1,0,0.3-0.1,0.4c-0.1,0.1-0.2,0.2-0.4,0.2
				c-0.2,0-0.3-0.1-0.4-0.2c-0.1-0.1-0.1-0.2-0.1-0.4V35.3z"/>
			<path id="Fill-9_1_" class="st0" d="M25.6,35.9c0.3,0,0.7-0.1,0.9-0.2c0.3-0.1,0.5-0.3,0.7-0.5c0.2-0.2,0.3-0.5,0.4-0.8
				c0.1-0.3,0.1-0.7,0.1-1.1c0-0.4,0-0.8-0.1-1.1c-0.1-0.3-0.2-0.6-0.4-0.9c-0.2-0.2-0.4-0.4-0.7-0.6c-0.3-0.1-0.6-0.2-1-0.2
				c-0.4,0-0.7,0.1-1,0.2c-0.3,0.1-0.5,0.3-0.7,0.6s-0.3,0.5-0.4,0.9c-0.1,0.3-0.1,0.7-0.1,1.1c0,0.4,0,0.8,0.1,1.1
				c0.1,0.3,0.2,0.6,0.4,0.9c0.2,0.2,0.4,0.4,0.7,0.6C24.9,35.9,25.2,35.9,25.6,35.9 M25.6,29.6c0.6,0,1,0.1,1.4,0.3
				c0.4,0.2,0.7,0.5,1,0.8c0.3,0.3,0.5,0.7,0.6,1.2c0.1,0.4,0.2,0.9,0.2,1.4s-0.1,0.9-0.2,1.4c-0.1,0.4-0.3,0.8-0.6,1.1
				c-0.3,0.3-0.6,0.6-1,0.8c-0.4,0.2-0.9,0.3-1.4,0.3c-0.5,0-1-0.1-1.4-0.3c-0.4-0.2-0.7-0.5-1-0.8c-0.3-0.3-0.4-0.7-0.6-1.1
				c-0.1-0.4-0.2-0.9-0.2-1.4c0-0.5,0.1-0.9,0.2-1.4c0.1-0.4,0.3-0.8,0.6-1.1c0.3-0.3,0.6-0.6,1-0.8C24.5,29.7,25,29.6,25.6,29.6"/>
			<path id="Fill-10" class="st0" d="M31.1,29.8v-0.7c0-0.4,0.1-0.7,0.2-1c0.1-0.3,0.3-0.5,0.5-0.7c0.2-0.2,0.5-0.3,0.8-0.4
				c0.3-0.1,0.6-0.1,0.9-0.1h0.4c0.1,0,0.3,0,0.4,0.1c0.1,0.1,0.2,0.2,0.2,0.4c0,0.2,0,0.3-0.1,0.3c-0.1,0.1-0.2,0.1-0.4,0.1h-0.4
				c-0.3,0-0.5,0-0.7,0.1c-0.2,0.1-0.4,0.2-0.5,0.3c-0.1,0.1-0.2,0.3-0.2,0.4c0,0.2-0.1,0.3-0.1,0.5v0.6h1.7c0.2,0,0.3,0,0.4,0.1
				c0.1,0.1,0.1,0.2,0.1,0.4c0,0.2,0,0.3-0.1,0.3c-0.1,0.1-0.2,0.1-0.4,0.1h-1.7v5.4c0,0.1,0,0.3-0.1,0.3c-0.1,0.1-0.2,0.1-0.4,0.1
				c-0.3,0-0.5-0.2-0.5-0.5v-5.4h-1c-0.1,0-0.3,0-0.3-0.1c-0.1,0-0.1-0.2-0.1-0.4c0-0.2,0-0.3,0.1-0.4c0.1-0.1,0.2-0.1,0.4-0.1H31.1
				z"/>
			<path id="Fill-11_1_" class="st0" d="M36.1,33.2c0,0.8,0.2,1.5,0.6,1.9c0.4,0.5,0.9,0.7,1.5,0.7c0.3,0,0.6-0.1,0.9-0.2
				c0.2-0.1,0.4-0.3,0.6-0.5c0.2-0.2,0.3-0.5,0.4-0.8c0.1-0.3,0.1-0.7,0.1-1c0-0.4,0-0.7-0.1-1c-0.1-0.3-0.2-0.6-0.4-0.9
				s-0.4-0.4-0.6-0.6c-0.2-0.1-0.5-0.2-0.8-0.2c-0.4,0-0.7,0.1-0.9,0.2c-0.3,0.1-0.5,0.3-0.6,0.5c-0.2,0.2-0.3,0.5-0.4,0.8
				C36.1,32.4,36.1,32.8,36.1,33.2L36.1,33.2z M40.1,35.3c-0.2,0.4-0.5,0.8-0.8,1c-0.3,0.2-0.8,0.4-1.3,0.4c-0.4,0-0.8-0.1-1.2-0.2
				c-0.4-0.2-0.7-0.4-0.9-0.7c-0.3-0.3-0.4-0.7-0.6-1.1c-0.1-0.4-0.2-0.9-0.2-1.4c0-0.6,0.1-1.2,0.2-1.6c0.2-0.5,0.4-0.8,0.6-1.1
				c0.3-0.3,0.6-0.5,0.9-0.6c0.4-0.1,0.7-0.2,1.1-0.2c0.5,0,1,0.2,1.3,0.4c0.4,0.3,0.6,0.7,0.8,1.1v-0.9c0-0.1,0-0.3,0.1-0.4
				c0.1-0.1,0.2-0.2,0.4-0.2c0.2,0,0.3,0.1,0.4,0.2c0.1,0.1,0.1,0.2,0.1,0.4v5.8c0,0.1,0,0.3-0.1,0.4c-0.1,0.1-0.2,0.2-0.4,0.2
				c-0.2,0-0.3-0.1-0.4-0.2c-0.1-0.1-0.1-0.2-0.1-0.4V35.3z"/>
			<path id="Fill-12" class="st0" d="M47,32.4c0-0.7-0.1-1.2-0.4-1.5c-0.3-0.3-0.7-0.4-1.2-0.4c-0.2,0-0.5,0-0.7,0.1
				c-0.2,0.1-0.4,0.2-0.6,0.3c-0.2,0.1-0.3,0.3-0.5,0.6c-0.1,0.2-0.2,0.5-0.2,0.8v3.8c0,0.3-0.2,0.5-0.5,0.5c-0.1,0-0.3,0-0.4-0.1
				s-0.1-0.2-0.1-0.3v-6c0-0.2,0-0.3,0.1-0.3s0.2-0.1,0.4-0.1c0.3,0,0.5,0.2,0.5,0.5v0.7c0.1-0.2,0.2-0.3,0.3-0.5s0.3-0.3,0.5-0.4
				c0.2-0.1,0.4-0.2,0.6-0.3s0.5-0.1,0.7-0.1c0.3,0,0.7,0,0.9,0.1c0.3,0.1,0.5,0.2,0.7,0.4c0.2,0.2,0.4,0.4,0.5,0.7
				c0.1,0.3,0.2,0.7,0.2,1.1v4.2c0,0.3-0.2,0.5-0.5,0.5c-0.3,0-0.5-0.2-0.5-0.5V32.4z"/>
			<path id="Fill-13_1_" class="st0" d="M53.7,29.8v-0.7c0-0.4,0.1-0.7,0.2-1c0.1-0.3,0.3-0.5,0.5-0.7c0.2-0.2,0.5-0.3,0.8-0.4
				c0.3-0.1,0.6-0.1,0.9-0.1h0.4c0.1,0,0.3,0,0.4,0.1c0.1,0.1,0.2,0.2,0.2,0.4c0,0.2,0,0.3-0.2,0.3c-0.1,0.1-0.2,0.1-0.4,0.1h-0.4
				c-0.3,0-0.5,0-0.7,0.1c-0.2,0.1-0.4,0.2-0.5,0.3s-0.2,0.3-0.2,0.4c0,0.2-0.1,0.3-0.1,0.5v0.6h1.7c0.2,0,0.3,0,0.4,0.1
				c0.1,0.1,0.1,0.2,0.1,0.4c0,0.2,0,0.3-0.1,0.3c-0.1,0.1-0.2,0.1-0.4,0.1h-1.7v5.4c0,0.1,0,0.3-0.1,0.3c-0.1,0.1-0.2,0.1-0.4,0.1
				c-0.3,0-0.5-0.2-0.5-0.5v-5.4h-1c-0.1,0-0.3,0-0.3-0.1c-0.1,0-0.1-0.2-0.1-0.4c0-0.2,0-0.3,0.1-0.4c0.1-0.1,0.2-0.1,0.4-0.1H53.7
				z"/>
			<path id="Fill-14" class="st0" d="M59.2,36.1c0,0.3-0.2,0.5-0.5,0.5c-0.3,0-0.5-0.2-0.5-0.5v-5.8c0-0.2,0-0.3,0.1-0.4
				c0.1-0.1,0.2-0.1,0.4-0.1c0.1,0,0.3,0,0.4,0.1c0.1,0.1,0.1,0.2,0.1,0.4V36.1z M58.1,28.1c0-0.2,0.1-0.3,0.2-0.5
				c0.1-0.1,0.3-0.2,0.5-0.2c0.2,0,0.3,0.1,0.5,0.2c0.1,0.1,0.2,0.3,0.2,0.5c0,0.2-0.1,0.3-0.2,0.5c-0.1,0.1-0.3,0.2-0.5,0.2
				c-0.2,0-0.4-0.1-0.5-0.2C58.1,28.5,58.1,28.3,58.1,28.1L58.1,28.1z"/>
			<path id="Fill-15" class="st0" d="M65.7,32.4c0-0.7-0.1-1.2-0.4-1.5c-0.3-0.3-0.7-0.4-1.2-0.4c-0.2,0-0.5,0-0.7,0.1
				c-0.2,0.1-0.4,0.2-0.6,0.3c-0.2,0.1-0.3,0.3-0.4,0.6c-0.1,0.2-0.2,0.5-0.2,0.8v3.8c0,0.3-0.2,0.5-0.5,0.5c-0.1,0-0.3,0-0.4-0.1
				s-0.1-0.2-0.1-0.3v-6c0-0.2,0-0.3,0.1-0.3s0.2-0.1,0.4-0.1c0.3,0,0.5,0.2,0.5,0.5v0.7c0.1-0.2,0.2-0.3,0.3-0.5
				c0.1-0.2,0.3-0.3,0.5-0.4c0.2-0.1,0.4-0.2,0.6-0.3c0.2-0.1,0.5-0.1,0.7-0.1c0.3,0,0.7,0,0.9,0.1c0.3,0.1,0.5,0.2,0.7,0.4
				c0.2,0.2,0.4,0.4,0.5,0.7c0.1,0.3,0.2,0.7,0.2,1.1v4.2c0,0.3-0.2,0.5-0.5,0.5s-0.5-0.2-0.5-0.5V32.4z"/>
			<path id="Fill-16_1_" class="st0" d="M68.8,33.2c0,0.8,0.2,1.5,0.6,1.9c0.4,0.5,0.9,0.7,1.5,0.7c0.3,0,0.6-0.1,0.9-0.2
				c0.2-0.1,0.4-0.3,0.6-0.5c0.2-0.2,0.3-0.5,0.4-0.8c0.1-0.3,0.1-0.7,0.1-1c0-0.4,0-0.7-0.1-1c-0.1-0.3-0.2-0.6-0.4-0.9
				c-0.2-0.2-0.4-0.4-0.6-0.6c-0.2-0.1-0.5-0.2-0.8-0.2c-0.4,0-0.7,0.1-0.9,0.2s-0.5,0.3-0.6,0.5c-0.2,0.2-0.3,0.5-0.4,0.8
				C68.8,32.4,68.8,32.8,68.8,33.2L68.8,33.2z M72.8,35.3c-0.2,0.4-0.5,0.8-0.8,1c-0.3,0.2-0.8,0.4-1.3,0.4c-0.4,0-0.8-0.1-1.2-0.2
				c-0.4-0.2-0.7-0.4-0.9-0.7c-0.3-0.3-0.4-0.7-0.6-1.1c-0.1-0.4-0.2-0.9-0.2-1.4c0-0.6,0.1-1.2,0.2-1.6c0.2-0.5,0.4-0.8,0.6-1.1
				c0.3-0.3,0.6-0.5,0.9-0.6c0.4-0.1,0.7-0.2,1.1-0.2c0.5,0,1,0.2,1.3,0.4s0.6,0.7,0.8,1.1v-0.9c0-0.1,0-0.3,0.1-0.4
				c0.1-0.1,0.2-0.2,0.4-0.2c0.2,0,0.3,0.1,0.4,0.2c0.1,0.1,0.1,0.2,0.1,0.4v5.8c0,0.1,0,0.3-0.1,0.4c-0.1,0.1-0.2,0.2-0.4,0.2
				c-0.2,0-0.3-0.1-0.4-0.2c-0.1-0.1-0.1-0.2-0.1-0.4V35.3z"/>
			<path id="Fill-17" class="st0" d="M79.7,32.4c0-0.7-0.1-1.2-0.4-1.5c-0.3-0.3-0.7-0.4-1.2-0.4c-0.2,0-0.5,0-0.7,0.1
				c-0.2,0.1-0.4,0.2-0.6,0.3c-0.2,0.1-0.3,0.3-0.4,0.6c-0.1,0.2-0.2,0.5-0.2,0.8v3.8c0,0.3-0.2,0.5-0.5,0.5c-0.1,0-0.3,0-0.4-0.1
				c-0.1-0.1-0.1-0.2-0.1-0.3v-6c0-0.2,0-0.3,0.1-0.3c0.1-0.1,0.2-0.1,0.4-0.1c0.3,0,0.5,0.2,0.5,0.5v0.7c0.1-0.2,0.2-0.3,0.3-0.5
				c0.1-0.2,0.3-0.3,0.5-0.4c0.2-0.1,0.4-0.2,0.6-0.3c0.2-0.1,0.5-0.1,0.7-0.1c0.3,0,0.7,0,0.9,0.1c0.3,0.1,0.5,0.2,0.7,0.4
				c0.2,0.2,0.4,0.4,0.5,0.7c0.1,0.3,0.2,0.7,0.2,1.1v4.2c0,0.3-0.2,0.5-0.5,0.5c-0.3,0-0.5-0.2-0.5-0.5V32.4z"/>
			<path id="Fill-18" class="st0" d="M81.8,33.2c0-0.5,0.1-0.9,0.2-1.3c0.2-0.4,0.4-0.8,0.7-1.1c0.3-0.3,0.6-0.6,1-0.8
				c0.4-0.2,0.9-0.3,1.4-0.3c0.4,0,0.9,0.1,1.2,0.2c0.4,0.1,0.7,0.3,0.9,0.6c0.1,0.1,0.2,0.2,0.3,0.4c0.1,0.1,0.1,0.3,0,0.4
				c0,0,0,0.1-0.1,0.1c0,0.1-0.1,0.1-0.2,0.1c-0.1,0-0.1,0-0.2,0c-0.1,0-0.2-0.1-0.3-0.2c-0.2-0.3-0.5-0.5-0.8-0.6
				c-0.3-0.1-0.6-0.2-0.9-0.2c-0.3,0-0.6,0.1-0.9,0.2c-0.3,0.1-0.5,0.3-0.7,0.6c-0.2,0.2-0.4,0.5-0.5,0.8c-0.1,0.3-0.2,0.7-0.2,1.1
				s0.1,0.8,0.2,1.1c0.1,0.3,0.3,0.6,0.5,0.9c0.2,0.2,0.5,0.4,0.7,0.6c0.3,0.1,0.6,0.2,0.8,0.2c0.4,0,0.7,0,1-0.1
				c0.3-0.1,0.5-0.3,0.7-0.5c0.2-0.2,0.3-0.2,0.4-0.2c0.1,0,0.3,0.1,0.4,0.2c0.1,0.1,0.2,0.2,0.1,0.4c0,0.2-0.1,0.3-0.3,0.5
				c-0.2,0.1-0.4,0.3-0.6,0.4c-0.2,0.1-0.5,0.2-0.8,0.2s-0.6,0.1-0.8,0.1c-0.5,0-1-0.1-1.4-0.3c-0.4-0.2-0.8-0.4-1-0.8
				c-0.3-0.3-0.5-0.7-0.7-1.1C81.8,34.1,81.8,33.7,81.8,33.2"/>
			<path id="Fill-19" class="st0" d="M89.7,36.1c0,0.3-0.2,0.5-0.5,0.5c-0.3,0-0.5-0.2-0.5-0.5v-5.8c0-0.2,0-0.3,0.1-0.4
				c0.1-0.1,0.2-0.1,0.4-0.1c0.1,0,0.3,0,0.4,0.1c0.1,0.1,0.1,0.2,0.1,0.4V36.1z M88.5,28.1c0-0.2,0.1-0.3,0.2-0.5
				c0.1-0.1,0.3-0.2,0.5-0.2c0.2,0,0.3,0.1,0.5,0.2c0.1,0.1,0.2,0.3,0.2,0.5c0,0.2-0.1,0.3-0.2,0.5c-0.1,0.1-0.3,0.2-0.5,0.2
				c-0.2,0-0.4-0.1-0.5-0.2C88.6,28.5,88.5,28.3,88.5,28.1L88.5,28.1z"/>
			<path id="Fill-20" class="st0" d="M92.3,33.2c0,0.8,0.2,1.5,0.6,1.9c0.4,0.5,0.9,0.7,1.5,0.7c0.3,0,0.6-0.1,0.9-0.2
				c0.2-0.1,0.4-0.3,0.6-0.5c0.2-0.2,0.3-0.5,0.4-0.8c0.1-0.3,0.1-0.7,0.1-1c0-0.4,0-0.7-0.1-1c-0.1-0.3-0.2-0.6-0.4-0.9
				c-0.2-0.2-0.4-0.4-0.6-0.6c-0.2-0.1-0.5-0.2-0.8-0.2c-0.4,0-0.7,0.1-0.9,0.2c-0.3,0.1-0.5,0.3-0.6,0.5c-0.2,0.2-0.3,0.5-0.4,0.8
				C92.3,32.4,92.3,32.8,92.3,33.2L92.3,33.2z M96.3,35.3c-0.2,0.4-0.5,0.8-0.8,1c-0.3,0.2-0.8,0.4-1.3,0.4c-0.4,0-0.8-0.1-1.2-0.2
				c-0.4-0.2-0.7-0.4-0.9-0.7c-0.3-0.3-0.4-0.7-0.6-1.1c-0.1-0.4-0.2-0.9-0.2-1.4c0-0.6,0.1-1.2,0.2-1.6c0.2-0.5,0.4-0.8,0.6-1.1
				c0.3-0.3,0.6-0.5,0.9-0.6c0.4-0.1,0.7-0.2,1.1-0.2c0.5,0,1,0.2,1.3,0.4c0.4,0.3,0.6,0.7,0.8,1.1v-0.9c0-0.1,0-0.3,0.1-0.4
				c0.1-0.1,0.2-0.2,0.4-0.2c0.2,0,0.3,0.1,0.4,0.2c0.1,0.1,0.1,0.2,0.1,0.4v5.8c0,0.1,0,0.3-0.1,0.4c-0.1,0.1-0.2,0.2-0.4,0.2
				c-0.2,0-0.3-0.1-0.4-0.2c-0.1-0.1-0.1-0.2-0.1-0.4V35.3z"/>
			<path id="Fill-21" class="st0" d="M98.7,27.5c0-0.2,0-0.3,0.1-0.4S99,27,99.2,27c0.2,0,0.3,0,0.4,0.1c0.1,0.1,0.1,0.2,0.1,0.4
				v8.6c0,0.3-0.2,0.4-0.5,0.4c-0.3,0-0.5-0.1-0.5-0.4V27.5z"/>
		</g>
	</g>
</g>
</svg>
