<?xml version="1.0" encoding="utf-8"?>
<!-- Generator: Adobe Illustrator 21.0.0, SVG Export Plug-In . SVG Version: 6.00 Build 0)  -->
<svg version="1.1" id="图层_1" xmlns="http://www.w3.org/2000/svg" xmlns:xlink="http://www.w3.org/1999/xlink" x="0px" y="0px"
	 viewBox="0 0 15 16" style="enable-background:new 0 0 15 16;" xml:space="preserve">
<style type="text/css">
	.st0{fill:#999999;}
</style>
<title>password_n</title>
<desc>Created with Sketch.</desc>
<path class="st0" d="M13,5h-1V4.5C12,2,10,0,7.5,0S3,2,3,4.5V5H2C0.9,5,0,5.9,0,7v7c0,1.1,0.9,2,2,2h11c1.1,0,2-0.9,2-2V7
	C15,5.9,14.1,5,13,5z M8,10.9V13H7v-2.1c-0.6-0.2-1-0.7-1-1.4C6,8.7,6.7,8,7.5,8S9,8.7,9,9.5C9,10.1,8.6,10.7,8,10.9z M11,5H4V4.5
	C4,2.6,5.6,1,7.5,1C9.4,1,11,2.6,11,4.5V5z"/>
</svg>
