<?xml version="1.0" encoding="utf-8"?>
<!-- Generator: Adobe Illustrator 21.0.0, SVG Export Plug-In . SVG Version: 6.00 Build 0)  -->
<svg version="1.1" id="图层_1" xmlns="http://www.w3.org/2000/svg" xmlns:xlink="http://www.w3.org/1999/xlink" x="0px" y="0px"
	 viewBox="0 0 16 13" style="enable-background:new 0 0 16 13;" xml:space="preserve">
<style type="text/css">
	.st0{fill:#00A299;}
</style>
<title>photo_s</title>
<desc>Created with Sketch.</desc>
<path id="photo_s" class="st0" d="M15,8.9V2c0-0.6-0.4-1-1-1H2C1.4,1,1,1.4,1,2v9c0,0.1,0,0.3,0.1,0.4c0.1-0.1,0.1-0.2,0.2-0.3
	l3.1-3.8c0.3-0.4,0.9-0.4,1.3,0l1.3,1.6l3.5-3.7c0.3-0.3,0.8-0.3,1.1,0L15,8.9z M0,2c0-1.1,0.9-2,2-2h12c1.1,0,2,0.9,2,2v9
	c0,1.1-0.9,2-2,2H2c-1.1,0-2-0.9-2-2V2z M4.5,6C3.7,6,3,5.3,3,4.5S3.7,3,4.5,3S6,3.7,6,4.5S5.3,6,4.5,6z"/>
</svg>
