<?xml version="1.0" encoding="UTF-8" standalone="no"?>
<svg width="16px" height="13px" viewBox="0 0 16 13" version="1.1" xmlns="http://www.w3.org/2000/svg" xmlns:xlink="http://www.w3.org/1999/xlink">
    <!-- Generator: Sketch 43 (38999) - http://www.bohemiancoding.com/sketch -->
    <title>nan</title>
    <desc>Created with Sketch.</desc>
    <defs></defs>
    <g id="Page-1" stroke="none" stroke-width="1" fill="none" fill-rule="evenodd">
        <g id="A02_注册_boss" transform="translate(-40.000000, -166.000000)" fill-rule="nonzero" fill="#999999">
            <path d="M47.4699294,174.931343 C47.4251849,173.792903 47.8406565,172.639963 48.7163444,171.770825 C49.4076448,171.084695 50.2771471,170.683232 51.176984,170.566435 L51.175662,167.832691 L50.2259436,168.775306 C50.0128506,168.986805 49.6788713,168.983124 49.4705916,168.776402 C49.2608599,168.568239 49.2628066,168.234027 49.4716964,168.0267 L51.3562097,166.156282 C51.4608908,166.052384 51.5972099,166.000825 51.7352919,166 C51.8712208,166.000503 52.0064971,166.0531 52.1115617,166.157379 L53.9949703,168.0267 C54.2080633,168.238199 54.2043547,168.56968 53.996075,168.776402 C53.7863433,168.984565 53.4496128,168.982633 53.2407231,168.775306 L52.2900915,167.831785 L52.291414,170.56666 C53.1906348,170.683747 54.0594652,171.085135 54.7503223,171.770825 C56.4165592,173.424598 56.4165592,176.105896 54.7503223,177.75967 C53.0840853,179.413443 50.3825814,179.413443 48.7163444,177.75967 C48.1573031,177.20481 47.7858264,176.534284 47.6019145,175.825707 C47.5202262,175.879676 47.4217227,175.911181 47.3155798,175.911173 L44.7754319,175.91098 L44.7755495,178.416763 C44.775571,178.692874 44.5497829,178.916688 44.2668624,178.916667 C43.9859008,178.916645 43.7581186,178.689461 43.7580973,178.416686 L43.7579797,175.910903 L41.2178318,175.91071 C40.9349469,175.910688 40.7056059,175.688103 40.7055841,175.40924 C40.7055625,175.132307 40.9344456,174.907826 41.2177535,174.907847 L43.7579014,174.90804 L43.7578622,174.405119 C42.8415109,174.273403 41.9532911,173.872738 41.2496777,173.179214 C39.5834408,171.536869 39.5834408,168.874103 41.2496777,167.231758 C42.9159147,165.589414 45.6174186,165.589414 47.2836556,167.231758 C48.9498926,168.874103 48.9498926,171.536869 47.2836556,173.179214 C46.5799958,173.872784 45.6917052,174.273456 44.7747248,174.38123 C44.7751157,174.389176 44.7753536,174.908117 44.7753536,174.908117 L47.3155015,174.90831 C47.3693188,174.908314 47.4211982,174.916373 47.4699294,174.931343 Z M46.5294084,172.435782 C47.7790861,171.204024 47.7790861,169.206949 46.5294084,167.97519 C45.2797306,166.743432 43.2536027,166.743432 42.003925,167.97519 C40.7542472,169.206949 40.7542472,171.204024 42.003925,172.435782 C43.2536027,173.66754 45.2797306,173.66754 46.5294084,172.435782 Z M49.4705916,177.011064 C50.7202694,178.251394 52.7463973,178.251394 53.996075,177.011064 C55.2457528,175.770734 55.2457528,173.759761 53.996075,172.51943 C52.7463973,171.2791 50.7202694,171.2791 49.4705916,172.51943 C48.2209139,173.759761 48.2209139,175.770734 49.4705916,177.011064 Z" id="nan"></path>
        </g>
    </g>
</svg>