<?xml version="1.0" encoding="utf-8"?>
<!-- Generator: Adobe Illustrator 21.0.0, SVG Export Plug-In . SVG Version: 6.00 Build 0)  -->
<svg version="1.1" id="图层_1" xmlns="http://www.w3.org/2000/svg" xmlns:xlink="http://www.w3.org/1999/xlink" x="0px" y="0px"
	 viewBox="0 0 17 16" style="enable-background:new 0 0 17 16;" xml:space="preserve">
<style type="text/css">
	.st0{fill:#999999;}
</style>
<title>store_n</title>
<desc>Created with Sketch.</desc>
<g id="Artboard-2" transform="translate(-290.000000, -71.000000)">
	<path id="store_n" class="st0" d="M292.1,77.7l-1.3,1.1c-0.2,0.2-0.6,0.2-0.7-0.1c-0.2-0.2-0.2-0.6,0.1-0.8l7.6-6.7
		c0.4-0.4,1.1-0.4,1.5,0l7.6,6.7c0.2,0.2,0.3,0.6,0.1,0.8c-0.2,0.2-0.5,0.3-0.7,0.1l-1.3-1.1v7.1c0,1.2-1,2.1-2.1,2.1h-3.2v-5.9
		c0-0.3-0.2-0.5-0.5-0.5H298c-0.3,0-0.5,0.2-0.5,0.5V87h-3.2c-1.2,0-2.1-0.9-2.1-2.1V77.7z"/>
</g>
</svg>
