<?xml version="1.0" encoding="utf-8"?>
<!-- Generator: Adobe Illustrator 21.0.0, SVG Export Plug-In . SVG Version: 6.00 Build 0)  -->
<svg version="1.1" id="图层_1" xmlns="http://www.w3.org/2000/svg" xmlns:xlink="http://www.w3.org/1999/xlink" x="0px" y="0px"
	 viewBox="0 0 12 16" style="enable-background:new 0 0 12 16;" xml:space="preserve">
<style type="text/css">
	.st0{fill:#00A299;}
</style>
<title>tel_s</title>
<desc>Created with Sketch.</desc>
<path id="tel_s" class="st0" d="M1.8,0C0.8,0,0,0.8,0,1.8v12.3c0,1,0.8,1.8,1.8,1.8h8.5c1,0,1.8-0.8,1.8-1.8V1.8
	c0-1-0.8-1.8-1.8-1.8H1.8z M5.3,1h1.2c0.2,0,0.3,0.1,0.3,0.3c0,0.2-0.1,0.3-0.3,0.3H5.3C5.2,1.6,5,1.5,5,1.3C5,1.1,5.2,1,5.3,1
	L5.3,1z M5.8,15.5c-0.4,0-0.8-0.3-0.8-0.8S5.4,14,5.8,14s0.8,0.3,0.8,0.8C6.5,15.2,6.2,15.5,5.8,15.5L5.8,15.5z M10.7,13.1H1.4
	c-0.2,0-0.4-0.1-0.4-0.3V2.3C1,2.1,1.2,2,1.4,2h9.3C10.9,2,11,2.1,11,2.3v10.5C11,12.9,10.9,13.1,10.7,13.1z"/>
</svg>
