<?xml version="1.0" encoding="utf-8"?>
<!-- Generator: Adobe Illustrator 21.0.0, SVG Export Plug-In . SVG Version: 6.00 Build 0)  -->
<svg version="1.1" id="图层_1" xmlns="http://www.w3.org/2000/svg" xmlns:xlink="http://www.w3.org/1999/xlink" x="0px" y="0px"
	 viewBox="0 0 12 16" style="enable-background:new 0 0 12 16;" xml:space="preserve">
<style type="text/css">
	.st0{fill:#999999;}
</style>
<title>tel_n</title>
<desc>Created with Sketch.</desc>
<g id="Artboard-2" transform="translate(-142.000000, -74.000000)">
	<path id="tel_n" class="st0" d="M143.8,74c-1,0-1.8,0.8-1.8,1.8v12.3c0,1,0.8,1.8,1.8,1.8h8.5c1,0,1.8-0.8,1.8-1.8V75.8
		c0-1-0.8-1.8-1.8-1.8H143.8z M147.3,75h1.2c0.2,0,0.3,0.1,0.3,0.3c0,0.2-0.1,0.3-0.3,0.3h-1.2c-0.2,0-0.3-0.1-0.3-0.3
		C147,75.1,147.2,75,147.3,75L147.3,75z M147.8,89.5c-0.4,0-0.8-0.3-0.8-0.8s0.3-0.8,0.8-0.8s0.8,0.3,0.8,0.8
		C148.5,89.2,148.2,89.5,147.8,89.5L147.8,89.5z M152.7,87.1h-9.3c-0.2,0-0.4-0.1-0.4-0.3V76.3c0-0.2,0.2-0.3,0.4-0.3h9.3
		c0.2,0,0.4,0.1,0.4,0.3v10.5C153,86.9,152.9,87.1,152.7,87.1z"/>
</g>
</svg>
