<?xml version="1.0" encoding="utf-8"?>
<!-- Generator: Adobe Illustrator 21.0.0, SVG Export Plug-In . SVG Version: 6.00 Build 0)  -->
<svg version="1.1" id="图层_1" xmlns="http://www.w3.org/2000/svg" xmlns:xlink="http://www.w3.org/1999/xlink" x="0px" y="0px"
	 viewBox="0 0 18 16" style="enable-background:new 0 0 18 16;" xml:space="preserve">
<style type="text/css">
	.st0{fill:#00A299;}
</style>
<title>add_order</title>
<desc>Created with Sketch.</desc>
<path id="add_order" class="st0" d="M12.5,7.5H11c-0.3,0-0.5,0.2-0.5,0.5s0.2,0.5,0.5,0.5h1.5V10c0,0.3,0.2,0.5,0.5,0.5
	s0.5-0.2,0.5-0.5V8.5H15c0.3,0,0.5-0.2,0.5-0.5S15.3,7.5,15,7.5h-1.5V6c0-0.3-0.2-0.5-0.5-0.5S12.5,5.7,12.5,6V7.5z M13,2
	C9.7,2,7,4.7,7,8s2.7,6,6,6l0,0c0,1.1-0.9,2-2,2H2c-1.1,0-2-0.9-2-2V2c0-1.1,0.9-2,2-2h9C12.1,0,13,0.9,13,2L13,2z M2,3.5
	C2,3.8,2.2,4,2.5,4h3C5.8,4,6,3.8,6,3.5S5.8,3,5.5,3h-3C2.2,3,2,3.2,2,3.5z M2,6.5C2,6.8,2.2,7,2.5,7h3C5.8,7,6,6.8,6,6.5
	S5.8,6,5.5,6h-3C2.2,6,2,6.2,2,6.5z M2,12.5C2,12.8,2.2,13,2.5,13h3C5.8,13,6,12.8,6,12.5S5.8,12,5.5,12h-3C2.2,12,2,12.2,2,12.5z
	 M2,9.5C2,9.8,2.2,10,2.5,10h3C5.8,10,6,9.8,6,9.5S5.8,9,5.5,9h-3C2.2,9,2,9.2,2,9.5z M13,13c-2.8,0-5-2.2-5-5s2.2-5,5-5s5,2.2,5,5
	S15.8,13,13,13z"/>
</svg>
