<?xml version="1.0" encoding="utf-8"?>
<!-- Generator: Adobe Illustrator 21.0.0, SVG Export Plug-In . SVG Version: 6.00 Build 0)  -->
<svg version="1.1" id="图层_1" xmlns="http://www.w3.org/2000/svg" xmlns:xlink="http://www.w3.org/1999/xlink" x="0px" y="0px"
	 viewBox="0 0 24 9" style="enable-background:new 0 0 24 9;" xml:space="preserve">
<style type="text/css">
	.st0{fill:#D8D8D8;}
</style>
<title>close</title>
<desc>Created with Sketch.</desc>
<path id="Combined-Shape" class="st0" d="M21.7,5L12,2L2.3,5C1.8,5.1,1.2,4.8,1,4.3S1.2,3.2,1.7,3l10-3C11.9,0,12.1,0,12.3,0l10,3
	c0.5,0.2,0.8,0.7,0.7,1.2C22.8,4.8,22.2,5.1,21.7,5z M21.7,9L12,6L2.3,9C1.8,9.1,1.2,8.8,1,8.3S1.2,7.2,1.7,7l10-3
	C11.9,4,12.1,4,12.3,4l10,3c0.5,0.2,0.8,0.7,0.7,1.2C22.8,8.8,22.2,9.1,21.7,9z"/>
</svg>
