<?xml version="1.0" encoding="utf-8"?>
<!-- Generator: Adobe Illustrator 21.0.0, SVG Export Plug-In . SVG Version: 6.00 Build 0)  -->
<svg version="1.1" id="图层_1" xmlns="http://www.w3.org/2000/svg" xmlns:xlink="http://www.w3.org/1999/xlink" x="0px" y="0px"
	 viewBox="0 0 18 20" style="enable-background:new 0 0 18 20;" xml:space="preserve">
<style type="text/css">
	.st0{fill:#999999;}
</style>
<title>Frozen_n</title>
<desc>Created with Sketch.</desc>
<g id="Artboard-2" transform="translate(-15.000000, -730.000000)">
	<path id="Frozen_n" class="st0" d="M29.1,738l-3.5,2.1l3.5,2.1l2.6-0.7c0.4-0.1,0.9,0.1,1,0.6l0,0.1c0.1,0.4-0.1,0.9-0.6,1l-1,0.3
		l0.9,0.5c0.4,0.2,0.5,0.7,0.3,1.1l0,0.1c-0.2,0.4-0.7,0.5-1.1,0.3l-0.9-0.6l0.3,1.1c0.1,0.4-0.1,0.9-0.6,1l0,0
		c-0.4,0.1-0.9-0.1-1-0.6l-0.7-2.7l-3.5-2.1v3.6l1.9,1.9c0.3,0.3,0.3,0.9,0,1.2l0,0c-0.3,0.3-0.8,0.3-1.1,0l-0.8-0.8v1.7
		c0,0.4-0.4,0.8-0.8,0.8h0c-0.5,0-0.8-0.4-0.8-0.8v-1.7l-0.8,0.8c-0.3,0.3-0.8,0.3-1.1,0l0,0c-0.3-0.3-0.3-0.8,0-1.2l1.9-1.9v-3.6
		l-3.1,1.8l-0.7,2.7c-0.1,0.4-0.6,0.7-1,0.6l0,0c-0.4-0.1-0.7-0.6-0.6-1l0.3-1l-1.4,0.8c-0.4,0.2-0.9,0.1-1.1-0.3l0-0.1
		c-0.2-0.4-0.1-0.9,0.3-1.1l1.4-0.8l-1-0.3c-0.4-0.1-0.7-0.6-0.6-1l0,0c0.1-0.4,0.6-0.7,1-0.6l2.6,0.7l3.1-1.8l-3.1-1.8l-2.6,0.7
		c-0.4,0.1-0.9-0.1-1-0.6l0,0c-0.1-0.4,0.1-0.9,0.6-1l1-0.3l-1.4-0.8c-0.4-0.2-0.5-0.7-0.3-1.1l0-0.1c0.2-0.4,0.7-0.5,1.1-0.3
		l1.4,0.8l-0.3-1.1c-0.1-0.4,0.1-0.9,0.6-1l0,0c0.4-0.1,0.9,0.1,1,0.6l0.7,2.7l3.1,1.8v-4.1l-1.9-2c-0.3-0.3-0.3-0.8,0-1.2l0,0
		c0.3-0.3,0.8-0.3,1.2,0L23,732v-1.1c0-0.5,0.4-0.8,0.8-0.8h0c0.5,0,0.8,0.4,0.8,0.8v1.1l0.8-0.8c0.3-0.3,0.8-0.3,1.1,0l0,0
		c0.3,0.3,0.3,0.8,0,1.2l-1.9,2v4.2l3.5-2.1l0.7-2.7c0.1-0.4,0.6-0.7,1-0.6l0,0c0.4,0.1,0.7,0.6,0.6,1l-0.3,1.1l0.9-0.5
		c0.4-0.2,0.9-0.1,1.1,0.3l0,0.1c0.2,0.4,0.1,0.9-0.3,1.1l-0.9,0.6l1,0.3c0.4,0.1,0.7,0.6,0.6,1l0,0c-0.1,0.4-0.6,0.7-1,0.6
		L29.1,738z"/>
</g>
</svg>
