<?xml version="1.0" encoding="utf-8"?>
<!-- Generator: Adobe Illustrator 21.0.0, SVG Export Plug-In . SVG Version: 6.00 Build 0)  -->
<svg version="1.1" id="图层_1" xmlns="http://www.w3.org/2000/svg" xmlns:xlink="http://www.w3.org/1999/xlink" x="0px" y="0px"
	 viewBox="0 0 16 14" style="enable-background:new 0 0 16 14;" xml:space="preserve">
<style type="text/css">
	.st0{fill:#F8BC1D;}
</style>
<title>manager</title>
<desc>Created with Sketch.</desc>
<g id="Artboard-2" transform="translate(-364.000000, -410.000000)">
	<path id="manager" class="st0" d="M376.2,422.8h-8.5c-0.3,0-0.6,0.3-0.6,0.6s0.3,0.6,0.6,0.6h8.5c0.3,0,0.6-0.3,0.6-0.6
		S376.5,422.8,376.2,422.8z M378.2,413.3c-0.9,0-1.7,0.8-1.7,1.8c0,0.6,0.3,1.2,0.8,1.5l-1.2,0.9c-0.3,0.3-0.8,0.2-1-0.2l-2.3-3.9
		c0.6-0.3,1-0.9,1-1.6c0-1-0.8-1.8-1.7-1.8c-1,0-1.7,0.8-1.7,1.8c0,0.7,0.4,1.3,1,1.6l-2.3,3.9c-0.2,0.3-0.7,0.5-1,0.2l-1.2-0.9
		c0.5-0.3,0.8-0.9,0.8-1.5c0-1-0.8-1.8-1.7-1.8c-1,0-1.7,0.8-1.7,1.8s0.8,1.8,1.7,1.8c0.1,0,0.1,0,0.2,0l0.9,4.7
		c0.1,0.4,0.5,0.8,0.9,0.8h8.5c0.4,0,0.8-0.3,0.9-0.8l0.9-4.7c0.1,0,0.1,0,0.2,0c0.9,0,1.7-0.8,1.7-1.8S379.2,413.3,378.2,413.3z
		 M365.1,415c0-0.4,0.3-0.7,0.7-0.7c0.4,0,0.7,0.3,0.7,0.7c0,0.4-0.3,0.7-0.7,0.7C365.4,415.7,365.1,415.4,365.1,415z M372,411.2
		c0.4,0,0.7,0.3,0.7,0.7s-0.3,0.7-0.7,0.7c-0.4,0-0.7-0.3-0.7-0.7S371.6,411.2,372,411.2z M375.9,421.1h-7.8l-0.5-2.6
		c0.8,0.5,1.8,0.3,2.3-0.5l2.1-3.5l2.1,3.5c0.5,0.8,1.5,1.1,2.3,0.5L375.9,421.1z M378.2,415.7c-0.4,0-0.7-0.3-0.7-0.7
		c0-0.4,0.3-0.7,0.7-0.7c0.4,0,0.7,0.3,0.7,0.7C378.9,415.4,378.6,415.7,378.2,415.7L378.2,415.7z"/>
</g>
</svg>
