<?xml version="1.0" encoding="utf-8"?>
<!-- Generator: Adobe Illustrator 21.0.0, SVG Export Plug-In . SVG Version: 6.00 Build 0)  -->
<svg version="1.1" id="图层_1" xmlns="http://www.w3.org/2000/svg" xmlns:xlink="http://www.w3.org/1999/xlink" x="0px" y="0px"
	 viewBox="0 0 15 18" style="enable-background:new 0 0 15 18;" xml:space="preserve">
<style type="text/css">
	.st0{fill:#F3A030;}
</style>
<title>my_order</title>
<desc>Created with Sketch.</desc>
<g id="Artboard-2" transform="translate(-112.000000, -361.000000)">
	<path id="my_order" class="st0" d="M118,362.5h-0.8c-0.4,0-0.7,0.3-0.7,0.8v0.4c0,0.2,0.2,0.4,0.4,0.4h5.2c0.2,0,0.4-0.2,0.4-0.4
		v-0.4c0-0.4-0.3-0.8-0.7-0.8H121v-0.7c0-0.4-0.3-0.8-0.8-0.8h-1.5c-0.4,0-0.8,0.3-0.8,0.8V362.5z M114.2,362.5
		c-1.2,0-2.2,1-2.2,2.3v12c0,1.2,1,2.3,2.2,2.3h10.5c1.2,0,2.2-1,2.2-2.3v-12c0-1.2-1-2.3-2.2-2.3h-1.5c0,0,0,1.5,0,1.5
		c0,0.4-0.3,0.8-0.7,0.8h-6c-0.4,0-0.7-0.3-0.7-0.8v-1.5C115.8,362.5,114.2,362.5,114.2,362.5z M119.5,363c-0.3,0-0.5-0.2-0.5-0.5
		s0.2-0.5,0.5-0.5s0.5,0.2,0.5,0.5S119.8,363,119.5,363z M115,367.5c0-0.3,0.2-0.5,0.5-0.5h8c0.3,0,0.5,0.2,0.5,0.5
		c0,0.3-0.2,0.5-0.5,0.5h-8C115.2,368,115,367.8,115,367.5z M115,371.5c0-0.3,0.2-0.5,0.5-0.5h8c0.3,0,0.5,0.2,0.5,0.5
		c0,0.3-0.2,0.5-0.5,0.5h-8C115.2,372,115,371.8,115,371.5z M115,375.5c0-0.3,0.2-0.5,0.5-0.5h8c0.3,0,0.5,0.2,0.5,0.5
		c0,0.3-0.2,0.5-0.5,0.5h-8C115.2,376,115,375.8,115,375.5z"/>
</g>
</svg>
