<?xml version="1.0" encoding="utf-8"?>
<!-- Generator: Adobe Illustrator 21.0.0, SVG Export Plug-In . SVG Version: 6.00 Build 0)  -->
<svg version="1.1" id="图层_1" xmlns="http://www.w3.org/2000/svg" xmlns:xlink="http://www.w3.org/1999/xlink" x="0px" y="0px"
	 viewBox="0 0 18 17" style="enable-background:new 0 0 18 17;" xml:space="preserve">
<style type="text/css">
	.st0{fill:#00A299;}
</style>
<title>my_store</title>
<desc>Created with Sketch.</desc>
<path id="my_store" class="st0" d="M2.2,7.2L0.9,8.3C0.7,8.6,0.3,8.5,0.1,8.3C-0.1,8,0,7.6,0.2,7.4l8-7.1c0.4-0.4,1.1-0.4,1.6,0
	l8,7.1C18,7.6,18.1,8,17.9,8.3c-0.2,0.3-0.6,0.3-0.8,0.1l-1.3-1.2v7.6c0,1.3-1,2.3-2.3,2.3h-3.4v-6.2c0-0.3-0.3-0.6-0.6-0.6H8.4
	c-0.3,0-0.6,0.3-0.6,0.6V17H4.5c-1.2,0-2.3-1-2.3-2.3V7.2z"/>
</svg>
