<?xml version="1.0" encoding="utf-8"?>
<!-- Generator: Adobe Illustrator 21.0.0, SVG Export Plug-In . SVG Version: 6.00 Build 0)  -->
<svg version="1.1" id="图层_1" xmlns="http://www.w3.org/2000/svg" xmlns:xlink="http://www.w3.org/1999/xlink" x="0px" y="0px"
	 viewBox="0 0 18 17" style="enable-background:new 0 0 18 17;" xml:space="preserve">
<style type="text/css">
	.st0{fill:#00A299;}
</style>
<title>saleaman_order</title>
<desc>Created with Sketch.</desc>
<g id="Artboard-2" transform="translate(-141.000000, -362.000000)">
	<path id="saleaman_order" class="st0" d="M155,365h2c1.1,0,2,0.9,2,2v10c0,1.1-0.9,2-2,2h-14c-1.1,0-2-0.9-2-2v-10c0-1.1,0.9-2,2-2
		h2v-1c0-1.1,0.9-2,2-2h6c1.1,0,2,0.9,2,2V365z M146,365h8v-1c0-0.5-0.4-1-1-1h-6c-0.5,0-1,0.4-1,1V365z M147.6,371H141v1h6.6
		c0.2,1.1,1.2,2,2.4,2s2.2-0.9,2.4-2h6.6v-1h-6.6c-0.2-1.1-1.2-2-2.4-2S147.8,369.9,147.6,371L147.6,371z M150,373
		c-0.8,0-1.5-0.7-1.5-1.5s0.7-1.5,1.5-1.5s1.5,0.7,1.5,1.5S150.8,373,150,373z"/>
</g>
</svg>
