<?xml version="1.0" encoding="utf-8"?>
<!-- Generator: Adobe Illustrator 21.0.0, SVG Export Plug-In . SVG Version: 6.00 Build 0)  -->
<svg version="1.1" id="图层_1" xmlns="http://www.w3.org/2000/svg" xmlns:xlink="http://www.w3.org/1999/xlink" x="0px" y="0px"
	 viewBox="0 0 20 16" style="enable-background:new 0 0 20 16;" xml:space="preserve">
<style type="text/css">
	.st0{fill:#F3A030;}
</style>
<title>salesman</title>
<desc>Created with Sketch.</desc>
<g id="Artboard-2" transform="translate(-181.000000, -363.000000)">
	<path id="salesman" class="st0" d="M194.4,366.4c0.1,0,0.2,0,0.3,0c2,0,3.7,1.7,3.7,3.8c0,1.2-0.5,2.3-1.4,3
		c2.3,0.9,3.8,3.2,3.8,5.8h-3.1c0-3.2-1.6-6.1-4.2-7.8c0.7-1,1.1-2.2,1.1-3.4C194.6,367.3,194.5,366.9,194.4,366.4L194.4,366.4z
		 M181,379c0-3.4,2-6.3,4.9-7.4c-1.1-0.9-1.8-2.2-1.8-3.8c0-2.7,2.1-4.8,4.7-4.8c2.6,0,4.7,2.1,4.7,4.8c0,1.5-0.7,2.9-1.8,3.8
		c2.9,1.2,4.9,4.1,4.9,7.4H181z M186.8,368.6c0,1.1,0.9,2,1.9,2c1.1,0,1.9-0.9,1.9-2c0-0.2-0.2-0.4-0.4-0.4c-0.2,0-0.4,0.2-0.4,0.4
		c0,0.7-0.5,1.2-1.2,1.2c-0.6,0-1.2-0.5-1.2-1.2c0-0.2-0.2-0.4-0.4-0.4C187,368.2,186.8,368.4,186.8,368.6z"/>
</g>
</svg>
