<?xml version="1.0" encoding="utf-8"?>
<!-- Generator: Adobe Illustrator 21.0.0, SVG Export Plug-In . SVG Version: 6.00 Build 0)  -->
<svg version="1.1" id="图层_1" xmlns="http://www.w3.org/2000/svg" xmlns:xlink="http://www.w3.org/1999/xlink" x="0px" y="0px"
	 viewBox="0 0 16 16" style="enable-background:new 0 0 16 16;" xml:space="preserve">
<style type="text/css">
	.st0{fill:#00A299;}
</style>
<title>search_16</title>
<desc>Created with Sketch.</desc>
<g id="Artboard-2" transform="translate(-87.000000, -506.000000)">
	<path id="search_16" class="st0" d="M98.2,509.3c-2.2-2.2-5.7-2.2-7.9,0s-2.2,5.7,0,7.9c1,1,2.5,1.6,3.9,1.6c1.5,0,2.9-0.6,3.9-1.6
		c1-1,1.6-2.5,1.6-3.9C99.8,511.8,99.2,510.4,98.2,509.3L98.2,509.3z M89.1,518.4c-2.1-2.1-2.7-5.2-1.6-7.9c1.1-2.7,3.8-4.5,6.7-4.5
		s5.6,1.8,6.7,4.5c1.1,2.7,0.5,5.8-1.6,7.9C96.6,521.2,92,521.2,89.1,518.4L89.1,518.4z M102.7,521.7c-0.2,0.2-0.4,0.3-0.7,0.3
		c-0.3,0-0.5-0.1-0.7-0.3l-1.4-1.4c-0.4-0.4-0.4-1,0-1.4c0.4-0.4,1-0.4,1.4,0l1.4,1.4c0.2,0.2,0.3,0.4,0.3,0.7
		S102.9,521.5,102.7,521.7L102.7,521.7z"/>
</g>
</svg>
