<?xml version="1.0" encoding="utf-8"?>
<!-- Generator: Adobe Illustrator 21.0.0, SVG Export Plug-In . SVG Version: 6.00 Build 0)  -->
<svg version="1.1" id="图层_1" xmlns="http://www.w3.org/2000/svg" xmlns:xlink="http://www.w3.org/1999/xlink" x="0px" y="0px"
	 viewBox="0 0 18 18" style="enable-background:new 0 0 18 18;" xml:space="preserve">
<style type="text/css">
	.st0{fill:#FAA732;}
</style>
<title>share</title>
<desc>Created with Sketch.</desc>
<g id="Artboard-2" transform="translate(-263.000000, -361.000000)">
	<path id="share" class="st0" d="M268.6,372.5c-0.6,0.5-1.4,0.9-2.3,0.9c-1.9,0-3.4-1.5-3.4-3.4s1.5-3.4,3.4-3.4
		c1,0,1.9,0.4,2.5,1.1l5.5-2.6c-0.1-0.2-0.1-0.5-0.1-0.8c0-1.9,1.5-3.4,3.4-3.4s3.4,1.5,3.4,3.4s-1.5,3.4-3.4,3.4
		c-1.2,0-2.2-0.6-2.8-1.6l-5.3,2.5c0.2,0.4,0.3,0.9,0.3,1.3c0,0.6-0.1,1.1-0.4,1.6l5.3,2.5c0.6-1.1,1.7-1.8,3-1.8
		c1.9,0,3.4,1.5,3.4,3.4s-1.5,3.4-3.4,3.4s-3.4-1.5-3.4-3.4c0-0.2,0-0.3,0-0.5L268.6,372.5z"/>
</g>
</svg>
