<?xml version="1.0" encoding="utf-8"?>
<!-- Generator: Adobe Illustrator 21.0.0, SVG Export Plug-In . SVG Version: 6.00 Build 0)  -->
<svg version="1.1" id="图层_1" xmlns="http://www.w3.org/2000/svg" xmlns:xlink="http://www.w3.org/1999/xlink" x="0px" y="0px"
	 viewBox="0 0 20 17" style="enable-background:new 0 0 20 17;" xml:space="preserve">
<style type="text/css">
	.st0{fill:#999999;}
</style>
<title>switch</title>
<desc>Created with Sketch.</desc>
<g id="Artboard-2" transform="translate(-388.000000, -476.000000)">
	<path id="switch" class="st0" d="M400.5,491h-6c-3.6,0-6.5-2.9-6.5-6.5c0-1.1,0.3-2.2,0.8-3.1c0.2-0.4,0.7-0.5,1-0.3
		c0.4,0.2,0.5,0.7,0.3,1c-0.4,0.7-0.6,1.6-0.6,2.4c0,2.8,2.2,5,5,5h6v-1.1c0-0.8,0.6-1.1,1.3-0.7l2.7,1.7c0.7,0.5,0.7,1.2,0,1.6
		l-2.7,1.7c-0.7,0.5-1.3,0.1-1.3-0.7V491z M395.5,478h6c3.6,0,6.5,2.9,6.5,6.5c0,0.7-0.1,1.4-0.3,2c-0.1,0.4-0.3,0.8-0.5,1.1
		c-0.2,0.4-0.7,0.5-1,0.3c-0.4-0.2-0.5-0.7-0.3-1c0.2-0.3,0.3-0.6,0.4-0.9c0.2-0.5,0.2-1,0.2-1.6c0-2.8-2.2-5-5-5h-6v1.1
		c0,0.8-0.6,1.1-1.3,0.7l-2.7-1.7c-0.7-0.4-0.7-1.2,0-1.6l2.7-1.7c0.7-0.4,1.3-0.1,1.3,0.7V478z"/>
</g>
</svg>
