<?xml version="1.0" encoding="utf-8"?>
<!-- Generator: Adobe Illustrator 21.0.0, SVG Export Plug-In . SVG Version: 6.00 Build 0)  -->
<svg version="1.1" id="图层_1" xmlns="http://www.w3.org/2000/svg" xmlns:xlink="http://www.w3.org/1999/xlink" x="0px" y="0px"
	 viewBox="0 0 20 20" style="enable-background:new 0 0 20 20;" xml:space="preserve">
<style type="text/css">
	.st0{fill:#FFFFFF;}
</style>
<title>telephone_white</title>
<desc>Created with Sketch.</desc>
<g id="Artboard-2" transform="translate(-46.000000, -730.000000)">
	<path id="telephone_white" class="st0" d="M53.2,735.4l0.5-0.5c0.3-0.3,0.5-0.8,0.5-1.2s-0.2-0.9-0.5-1.2l-1.9-1.9
		c-0.7-0.7-1.8-0.7-2.5,0l-0.5,0.5L53.2,735.4 M61.1,742.2l-0.5,0.5l4.3,4.3l0.5-0.5c0.3-0.3,0.5-0.8,0.5-1.2c0-0.5-0.2-0.9-0.5-1.2
		l-1.9-1.9C63,741.6,61.8,741.6,61.1,742.2 M47.3,732.6c-0.2,0.2-4.4,4.6,3.5,12.6c4,4,7.1,4.8,9,4.8c2.1,0,3.3-1,3.6-1.3l0.4-0.4
		l-4.3-4.4l-0.8,0.8c-0.2,0.2-0.6,0.2-0.8,0l-6.6-6.6c-0.1-0.1-0.2-0.3-0.2-0.4c0-0.2,0.1-0.3,0.2-0.4l0.8-0.8l-4.4-4.4L47.3,732.6"
		/>
</g>
</svg>
