<?xml version="1.0" encoding="utf-8"?>
<!-- Generator: Adobe Illustrator 21.0.0, SVG Export Plug-In . SVG Version: 6.00 Build 0)  -->
<svg version="1.1" id="图层_1" xmlns="http://www.w3.org/2000/svg" xmlns:xlink="http://www.w3.org/1999/xlink" x="0px" y="0px"
	 viewBox="0 0 14 17" style="enable-background:new 0 0 14 17;" xml:space="preserve">
<style type="text/css">
	.st0{fill:#F09600;}
</style>
<title>tip</title>
<desc>Created with Sketch.</desc>
<path id="tip" class="st0" d="M7.1,2.1c3.4,0,6.2,2.6,6.2,5.9c0,2.5-1.6,3.8-2.6,4.5c-0.2,0.2-0.5,0.4-0.5,0.5l0,0.7
	c0,0,0,0.1,0,0.1c0,0,0,0.1,0,0.1l0,0.7c0,1-0.9,1.8-1.9,1.8H6c-1,0-1.9-0.8-1.9-1.8c0,0,0,0,0,0V14c0,0,0-0.1,0-0.1s0-0.1,0-0.1V13
	c-0.1-0.1-0.4-0.3-0.6-0.5C2.6,11.7,1,10.4,1,8C1,4.8,3.7,2.1,7.1,2.1z M10,11.7C10.9,11,12.2,10,12.2,8c0-2.7-2.3-4.9-5.1-4.9
	C4.3,3.1,2,5.3,2,8c0,2,1.3,3,2.2,3.7c0.5,0.4,1,0.8,1,1.3v0.4h1.4V9.8L4.9,8.3c-0.2-0.2-0.2-0.5,0-0.7c0.2-0.2,0.6-0.2,0.8,0
	l1.4,1.4l1.3-1.2c0.2-0.2,0.6-0.2,0.8,0c0.2,0.2,0.2,0.5,0,0.7L7.7,9.8v3.5h1.4l0-0.4C9.1,12.5,9.5,12.2,10,11.7z M8.3,15.4
	c0.4,0,0.8-0.3,0.8-0.8l0-0.3H5.2v0.3c0,0,0,0,0,0c0,0.4,0.4,0.7,0.8,0.7H8.3z M6.5,0.6C6.5,0.3,6.8,0,7.2,0c0.3,0,0.6,0.3,0.6,0.6
	v0.2c0,0.3-0.3,0.6-0.6,0.6c-0.3,0-0.6-0.3-0.6-0.6V0.6z M11.8,2c0.2-0.2,0.6-0.2,0.9,0c0.2,0.2,0.2,0.6,0,0.9L12.5,3
	c-0.2,0.2-0.6,0.2-0.9,0c-0.2-0.2-0.2-0.6,0-0.9L11.8,2z M2.2,2l0.2,0.2c0.2,0.2,0.2,0.6,0,0.9C2.2,3.3,1.8,3.3,1.5,3L1.4,2.9
	C1.1,2.6,1.1,2.2,1.4,2C1.6,1.7,2,1.7,2.2,2z"/>
</svg>
