<?xml version="1.0" encoding="UTF-8" standalone="no"?>
<svg width="214px" height="180px" viewBox="0 0 214 180" version="1.1" xmlns="http://www.w3.org/2000/svg" xmlns:xlink="http://www.w3.org/1999/xlink">
    <!-- Generator: Sketch 43 (38999) - http://www.bohemiancoding.com/sketch -->
    <title> 暂无数据</title>
    <desc>Created with Sketch.</desc>
    <defs></defs>
    <g id="Page-1" stroke="none" stroke-width="1" fill="none" fill-rule="evenodd">
        <g id="C01_公司业绩-Copy" transform="translate(-81.000000, -244.000000)">
            <g id="-暂无数据" transform="translate(81.000000, 244.000000)">
                <path d="M187.200178,106.392118 C183.366917,104.145016 178.354306,104.662823 175.064555,107.950487 C171.821676,111.191308 171.270139,116.10141 173.408349,119.910556 L198.249493,144.735938 C203.327485,149.810708 203.326942,158.039077 198.245786,163.117009 C193.165747,168.193825 184.928289,168.192739 179.853044,163.120715 L170.605216,153.878754 C154.327412,170.024959 131.91204,180 107.165392,180 C57.4282056,180 17.1082492,139.705627 17.1082492,90 C17.1082492,85.5341927 17.4337177,81.1443545 18.0622426,76.852883 L3.05041217,61.8505779 C0.314268436,59.1161703 0.319236155,54.677855 3.04907587,51.9497475 C5.78448159,49.2160774 10.2237243,49.2203485 12.9561925,51.9510829 L25.1207415,64.1079132 C28.9251847,66.2203065 33.8188245,65.6614637 37.0516216,62.4307179 C40.2410373,59.2433259 40.8287594,54.4428782 38.8152802,50.6638201 L16.5957953,28.4584339 C11.9050971,23.7707121 11.9029058,16.1726033 16.5932038,11.4852814 C21.2824708,6.79898987 28.8793764,6.79309533 33.577133,11.4878712 L46.0205107,23.9233533 C62.0794515,9.07467136 83.5619976,0 107.165392,0 C156.902579,0 197.222536,40.2943725 197.222536,90 C197.222536,91.2412938 197.19739,92.4767184 197.147581,93.7057926 L211.661211,108.210214 C214.784685,111.331706 214.776132,116.401192 211.656315,119.51903 C208.530137,122.643224 203.465534,122.647154 200.340319,119.523922 L187.200178,106.392118 L187.200178,106.392118 Z" id="Combined-Shape" fill="#C3E9E7"></path>
                <text id="暂无数据～" font-family="PingFangSC-Regular, PingFang SC" font-size="16" font-weight="normal" fill="#666666">
                    <tspan x="70" y="152">暂无数据～</tspan>
                </text>
                <g id="Group" transform="translate(49.000000, 38.000000)">
                    <path d="M11.375,9.61627907 L3.82287382,9.61627907 C3.15886384,9.61627907 2.625,10.1464626 2.625,10.7997511 L2.625,75.0271146 C2.625,77.4345251 4.58261269,79.3837209 7,79.3837209 L11.375,79.3837209 L11.375,9.61627907 Z" id="Rectangle-70-Copy-2" fill="#56CAC3" fill-rule="nonzero"></path>
                    <path d="M0,10.7997511 C0,8.69942494 1.71122164,7 3.82287382,7 L14,7 L14,82 L7,82 C3.13344139,82 0,78.880031 0,75.0271146 L0,10.7997511 Z M11.375,9.61627907 L3.82287382,9.61627907 C3.15886384,9.61627907 2.625,10.1464626 2.625,10.7997511 L2.625,75.0271146 C2.625,77.4345251 4.58261269,79.3837209 7,79.3837209 L11.375,79.3837209 L11.375,9.61627907 Z" id="Rectangle-70-Copy" fill="#00A299" fill-rule="nonzero"></path>
                    <path d="M13.2222222,7.55767607 C13.2222222,3.87594063 16.2080773,0.891304348 19.88811,0.891304348 L28.4324043,0.891304348 L31.8551584,0.891304348 L36.238198,0.891304348 L39.9349886,0.891304348 L111.28585,0.891304348 C114.970881,0.891304348 117.958189,3.87839244 117.958189,7.55569995 L117.958189,27.4110818 L117.958189,31.4893967 L117.958189,35.5018488 L117.958189,39.1043233 L117.958189,73.422027 C117.958189,77.0994668 114.978032,80.0806208 111.282724,80.0806208 L101.563089,80.0806208 L98.6374603,80.0806208 L88.0349507,80.0806208 L85.0244092,80.0806208 L77.4872483,80.0806208 L75.0170604,80.0806208 L73.50793,80.0806208 L13.2222222,80.0806208 L13.2222222,7.55767607 Z" id="Rectangle-69-Copy-4" fill="#FFFFFF"></path>
                    <path d="M17.6666667,8.44898042 C17.6666667,4.76724498 20.6536466,1.7826087 24.3310978,1.7826087 L32.0881726,1.7826087 L35.3334506,1.7826087 L39.4892215,1.7826087 L42.9943267,1.7826087 L110.305616,1.7826087 C113.987292,1.7826087 116.97188,4.76969679 116.97188,8.4470043 L116.97188,28.3023861 L116.97188,32.380701 L116.97188,36.3931531 L116.97188,39.9956276 L116.97188,74.3133313 C116.97188,77.9907711 113.983382,80.9719251 110.296888,80.9719251 L101.426896,80.9719251 L98.6529665,80.9719251 L88.6002166,80.9719251 L85.7457773,80.9719251 L78.5994322,80.9719251 L76.2573281,80.9719251 L74.8264488,80.9719251 L17.6666667,80.9719251 L17.6666667,8.44898042 Z" id="Rectangle-69-Copy" fill="#EBFFFE"></path>
                    <path d="M14.1111111,79.1893164 L112.171613,79.1893164 C115.866921,79.1893164 118.847078,76.1994013 118.847078,72.5111541 L118.847078,6.67934735 C118.847078,2.9870881 115.85977,0 112.174739,0 L20.7769989,0 C17.0969661,0 14.1111111,2.99225488 14.1111111,6.68338833 L14.1111111,79.1893164 L105.377902,79.1893164 C109.061422,79.1893164 112.041035,76.1994013 112.041035,72.5111541 L112.041035,6.67934735 C112.041035,2.9870881 109.055166,0 105.37191,0 L20.7778469,0 C17.1034078,0 14.1111111,2.99225488 14.1111111,6.68338833 L14.1111111,79.1893164 Z" id="Rectangle-69-Copy-2" fill="#A5D2CF"></path>
                    <path d="M31.0760925,2.67391304 L35.4836699,2.67391304 C36.2230924,2.67391304 36.8225129,2.07533722 36.8225129,1.33695652 C36.8225129,0.598575824 36.2230924,0 35.4836699,0 L31.0760925,0 C30.3366699,0 29.7372495,0.598575824 29.7372495,1.33695652 C29.7372495,2.07533722 30.3366699,2.67391304 31.0760925,2.67391304 Z M39.2011563,2.67391304 L111.702425,2.67391304 C114.266111,2.67391304 116.322314,4.63808372 116.322314,7.02750623 L116.322314,27.9025372 C116.322314,28.6409179 116.921734,29.2394937 117.661157,29.2394937 C118.40058,29.2394937 119,28.6409179 119,27.9025372 L119,7.02750623 C119,3.13412391 115.719025,0 111.702425,0 L39.2011563,0 C38.4617338,0 37.8623134,0.598575824 37.8623134,1.33695652 C37.8623134,2.07533722 38.4617338,2.67391304 39.2011563,2.67391304 Z M116.322314,31.9878959 L116.322314,36.007278 C116.322314,36.7456587 116.921734,37.3442345 117.661157,37.3442345 C118.40058,37.3442345 119,36.7456587 119,36.007278 L119,31.9878959 C119,31.2495152 118.40058,30.6509393 117.661157,30.6509393 C116.921734,30.6509393 116.322314,31.2495152 116.322314,31.9878959 Z M116.322314,39.6159745 L116.322314,74.9723258 C116.322314,77.362278 114.265501,79.326087 111.702638,79.326087 L101.174271,79.326087 C100.434849,79.326087 99.8354285,79.9246628 99.8354285,80.6630435 C99.8354285,81.4014242 100.434849,82 101.174271,82 L111.702638,82 C115.718142,82 119,78.8665391 119,74.9723258 L119,39.6159745 C119,38.8775938 118.40058,38.2790179 117.661157,38.2790179 C116.921734,38.2790179 116.322314,38.8775938 116.322314,39.6159745 Z M98.2322641,79.326087 L76.9636461,79.326087 C76.2242236,79.326087 75.6248031,79.9246628 75.6248031,80.6630435 C75.6248031,81.4014242 76.2242236,82 76.9636461,82 L98.2322641,82 C98.9716866,82 99.571107,81.4014242 99.571107,80.6630435 C99.571107,79.9246628 98.9716866,79.326087 98.2322641,79.326087 Z M13.677686,7.03392725 C13.677686,4.63814864 15.7322456,2.67391304 18.3001859,2.67391304 L27.6341767,2.67391304 C28.3735992,2.67391304 28.9730196,2.07533722 28.9730196,1.33695652 C28.9730196,0.598575824 28.3735992,0 27.6341767,0 L18.3001859,0 C14.2788579,0 11,3.13471042 11,7.03392725 L11,82 L72.9620502,82 C73.7014728,82 74.3008932,81.4014242 74.3008932,80.6630435 C74.3008932,79.9246628 73.7014728,79.326087 72.9620502,79.326087 L13.677686,79.326087 L13.677686,7.03392725 Z" id="Rectangle-69" fill="#00A299" fill-rule="nonzero"></path>
                    <rect id="Rectangle-80-Copy-4" fill="#00A299" x="64" y="18" width="18" height="3" rx="1.5"></rect>
                    <rect id="Rectangle-80-Copy-6" fill="#00A299" x="64" y="29" width="30" height="3" rx="1.5"></rect>
                    <rect id="Rectangle-80-Copy-8" fill="#00A299" transform="translate(83.000000, 41.500000) scale(1, -1) translate(-83.000000, -41.500000) " x="64" y="40" width="38" height="3" rx="1.5"></rect>
                    <rect id="Rectangle-80-Copy-9" fill="#00A299" transform="translate(83.000000, 52.500000) scale(1, -1) translate(-83.000000, -52.500000) " x="64" y="51" width="38" height="3" rx="1.5"></rect>
                    <rect id="Rectangle-1412" fill="#56CAC4" x="24" y="15" width="30" height="41" rx="4.44444444"></rect>
                </g>
                <path d="M177.488395,19.9197756 C177.488395,19.4117976 177.897928,19 178.411047,19 C178.920613,19 179.333699,19.4117079 179.333699,19.9197756 L179.333699,23.8049465 C179.333699,24.3129245 178.924166,24.7247221 178.411047,24.7247221 C177.901481,24.7247221 177.488395,24.3130142 177.488395,23.8049465 L177.488395,19.9197756 Z M183.699142,21.6702584 C184.058336,21.3110637 184.639105,21.3094621 185.001935,21.6722921 C185.362252,22.03261 185.363226,22.6158268 185.003968,22.9750849 L182.256738,25.7223156 C181.897543,26.0815103 181.316775,26.0831119 180.953945,25.7202819 C180.593627,25.359964 180.592653,24.7767472 180.951911,24.4174891 L183.699142,21.6702584 Z M186.812194,27.2011242 C187.320172,27.2011242 187.73197,27.6106568 187.73197,28.1237759 C187.73197,28.6333423 187.320262,29.0464275 186.812194,29.0464275 L182.927023,29.0464275 C182.419045,29.0464275 182.007248,28.6368949 182.007248,28.1237759 C182.007248,27.6142094 182.418955,27.2011242 182.927023,27.2011242 L186.812194,27.2011242 Z M185.003968,33.2724668 C185.363163,33.6316616 185.364765,34.2124297 185.001935,34.5752597 C184.641617,34.9355776 184.0584,34.9365515 183.699142,34.5772933 L180.951911,31.8300627 C180.592716,31.470868 180.591115,30.8900998 180.953945,30.5272698 C181.314263,30.166952 181.897479,30.165978 182.256738,30.5252362 L185.003968,33.2724668 Z M179.333699,36.3277761 C179.333699,36.8357542 178.924166,37.2475518 178.411047,37.2475518 C177.901481,37.2475518 177.488395,36.8358439 177.488395,36.3277761 L177.488395,32.4426053 C177.488395,31.9346272 177.897928,31.5228296 178.411047,31.5228296 C178.920613,31.5228296 179.333699,31.9345375 179.333699,32.4426053 L179.333699,36.3277761 Z M173.122952,34.5772933 C172.763757,34.9364881 172.182989,34.9380896 171.820159,34.5752597 C171.459841,34.2149418 171.458868,33.631725 171.818126,33.2724668 L174.565356,30.5252362 C174.924551,30.1660415 175.505319,30.1644399 175.868149,30.5272698 C176.228467,30.8875877 176.229441,31.4708045 175.870183,31.8300627 L173.122952,34.5772933 Z M170.0099,29.0464275 C169.501922,29.0464275 169.090124,28.6368949 169.090124,28.1237759 C169.090124,27.6142094 169.501832,27.2011242 170.0099,27.2011242 L173.895071,27.2011242 C174.403049,27.2011242 174.814846,27.6106568 174.814846,28.1237759 C174.814846,28.6333423 174.403138,29.0464275 173.895071,29.0464275 L170.0099,29.0464275 Z M171.818126,22.9750849 C171.458931,22.6158902 171.457329,22.035122 171.820159,21.6722921 C172.180477,21.3119742 172.763694,21.3110003 173.122952,21.6702584 L175.870183,24.4174891 C176.229378,24.7766838 176.230979,25.357452 175.868149,25.7202819 C175.507831,26.0805998 174.924614,26.0815737 174.565356,25.7223156 L171.818126,22.9750849 Z" id="Rectangle-952-Copy-4" fill="#00A299"></path>
                <path d="M74.7163432,0.516532228 C74.7163432,0.231259356 74.9566948,0 75.2344906,0 C75.5206555,0 75.7526379,0.231208989 75.7526379,0.516532228 L75.7526379,2.69838597 C75.7526379,2.98365884 75.5122864,3.2149182 75.2344906,3.2149182 C74.9483257,3.2149182 74.7163432,2.98370921 74.7163432,2.69838597 L74.7163432,0.516532228 Z M78.2042054,1.49957714 C78.4059238,1.29785876 78.7394031,1.30428792 78.9358344,1.50071921 C79.1381835,1.70306834 79.1387304,2.03059416 78.9369764,2.23234816 L77.3941729,3.77515174 C77.1924545,3.97687012 76.8589752,3.97044096 76.6625439,3.77400967 C76.4601948,3.57166054 76.4596478,3.24413472 76.6614018,3.04238072 L78.2042054,1.49957714 Z M79.9524489,4.60562853 C80.2377218,4.60562853 80.4689812,4.84598008 80.4689812,5.12377588 C80.4689812,5.40994076 80.2377722,5.64192324 79.9524489,5.64192324 L77.7705952,5.64192324 C77.4853223,5.64192324 77.254063,5.40157168 77.254063,5.12377588 C77.254063,4.837611 77.4852719,4.60562853 77.7705952,4.60562853 L79.9524489,4.60562853 Z M78.9369764,8.0152036 C79.1386948,8.21692199 79.1322657,8.55040126 78.9358344,8.74683255 C78.7334852,8.94918168 78.4059594,8.94972862 78.2042054,8.74797462 L76.6614018,7.20517104 C76.4596835,7.00345266 76.4661126,6.66997338 76.6625439,6.47354209 C76.864893,6.27119296 77.1924189,6.27064603 77.3941729,6.47240003 L78.9369764,8.0152036 Z M75.7526379,9.73101953 C75.7526379,10.0162924 75.5122864,10.2475518 75.2344906,10.2475518 C74.9483257,10.2475518 74.7163432,10.0163428 74.7163432,9.73101953 L74.7163432,7.54916579 C74.7163432,7.26389292 74.9566948,7.03263356 75.2344906,7.03263356 C75.5206555,7.03263356 75.7526379,7.26384255 75.7526379,7.54916579 L75.7526379,9.73101953 Z M72.2647757,8.74797462 C72.0630574,8.949693 71.7295781,8.94326384 71.5331468,8.74683255 C71.3307977,8.54448342 71.3302507,8.2169576 71.5320047,8.0152036 L73.0748083,6.47240003 C73.2765267,6.27068164 73.610006,6.2771108 73.8064373,6.47354209 C74.0087864,6.67589122 74.0093333,7.00341704 73.8075793,7.20517104 L72.2647757,8.74797462 Z M70.5165322,5.64192324 C70.2312594,5.64192324 70,5.40157168 70,5.12377588 C70,4.837611 70.231209,4.60562853 70.5165322,4.60562853 L72.698386,4.60562853 C72.9836588,4.60562853 73.2149182,4.84598008 73.2149182,5.12377588 C73.2149182,5.40994076 72.9837092,5.64192324 72.698386,5.64192324 L70.5165322,5.64192324 Z M71.5320047,2.23234816 C71.3302863,2.03062978 71.3367155,1.6971505 71.5331468,1.50071921 C71.7354959,1.29837008 72.0630217,1.29782315 72.2647757,1.49957714 L73.8075793,3.04238072 C74.0092977,3.2440991 74.0028685,3.57757838 73.8064373,3.77400967 C73.6040881,3.9763588 73.2765623,3.97690573 73.0748083,3.77515174 L71.5320047,2.23234816 Z" id="Rectangle-952-Copy-5" fill="#00A299"></path>
                <path d="M37.6583623,96.5384729 L36.2620734,96.5384729 C35.5649264,96.5384729 35,97.1067294 35,97.8077093 C35,98.5135763 35.5650495,99.0769457 36.2620734,99.0769457 L37.6583623,99.0769457 L37.6583623,100.473235 C37.6583623,101.170382 38.2266188,101.735308 38.9275988,101.735308 C39.6334658,101.735308 40.1968352,101.170259 40.1968352,100.473235 L40.1968352,99.0769457 L41.5931242,99.0769457 C42.2902711,99.0769457 42.8551975,98.5086892 42.8551975,97.8077093 C42.8551975,97.1018423 42.290148,96.5384729 41.5931242,96.5384729 L40.1968352,96.5384729 L40.1968352,95.1421839 C40.1968352,94.445037 39.6285787,93.8801105 38.9275988,93.8801105 C38.2217317,93.8801105 37.6583623,94.44516 37.6583623,95.1421839 L37.6583623,96.5384729 Z" id="Rectangle-89-Copy-12" fill="#56CAC3"></path>
                <path d="M46.6583623,18.5384729 L45.2620734,18.5384729 C44.5649264,18.5384729 44,19.1067294 44,19.8077093 C44,20.5135763 44.5650495,21.0769457 45.2620734,21.0769457 L46.6583623,21.0769457 L46.6583623,22.4732347 C46.6583623,23.1703816 47.2266188,23.7353081 47.9275988,23.7353081 C48.6334658,23.7353081 49.1968352,23.1702586 49.1968352,22.4732347 L49.1968352,21.0769457 L50.5931242,21.0769457 C51.2902711,21.0769457 51.8551975,20.5086892 51.8551975,19.8077093 C51.8551975,19.1018423 51.290148,18.5384729 50.5931242,18.5384729 L49.1968352,18.5384729 L49.1968352,17.1421839 C49.1968352,16.445037 48.6285787,15.8801105 47.9275988,15.8801105 C47.2217317,15.8801105 46.6583623,16.44516 46.6583623,17.1421839 L46.6583623,18.5384729 Z" id="Rectangle-89-Copy-14" fill="#97D9D5"></path>
                <path d="M61.8003985,30.9231524 C58.6037452,30.9231524 56,28.3988862 56,25.2692855 C56,22.1396848 58.6037452,19.6154186 61.8003985,19.6154186 C64.9970518,19.6154186 67.600797,22.1396848 67.600797,25.2692855 C67.600797,28.3988862 64.9970518,30.9231524 61.8003985,30.9231524 Z M61.8003985,28.9231524 C63.906119,28.9231524 65.600797,27.2802042 65.600797,25.2692855 C65.600797,23.2583668 63.906119,21.6154186 61.8003985,21.6154186 C59.694678,21.6154186 58,23.2583668 58,25.2692855 C58,27.2802042 59.694678,28.9231524 61.8003985,28.9231524 Z" id="Oval-86-Copy-3" fill="#56CAC3" fill-rule="nonzero"></path>
                <path d="M211,46.848426 C209.346672,46.848426 208,45.5428608 208,43.924213 C208,42.3055652 209.346672,41 211,41 C212.653328,41 214,42.3055652 214,43.924213 C214,45.5428608 212.653328,46.848426 211,46.848426 Z M211,45.8140143 C212.089091,45.8140143 212.965588,44.9642719 212.965588,43.924213 C212.965588,42.8841541 212.089091,42.0344117 211,42.0344117 C209.910909,42.0344117 209.034412,42.8841541 209.034412,43.924213 C209.034412,44.9642719 209.910909,45.8140143 211,45.8140143 Z" id="Oval-86-Copy-5" fill="#00A299" fill-rule="nonzero"></path>
                <path d="M33.5770996,117.821031 C33.5770996,117.367588 33.9426657,117 34.4006974,117 C34.8555579,117 35.2242952,117.367508 35.2242952,117.821031 L35.2242952,121.289098 C35.2242952,121.74254 34.8587291,122.110128 34.4006974,122.110128 C33.9458369,122.110128 33.5770996,121.742621 33.5770996,121.289098 L33.5770996,117.821031 Z M39.1210738,119.383585 C39.4417061,119.062953 39.9601243,119.061523 40.2840016,119.385401 C40.6056366,119.707036 40.6065059,120.227639 40.2858169,120.548328 L37.833523,123.000622 C37.5128907,123.321255 36.9944725,123.322684 36.6705952,122.998807 C36.3489602,122.677172 36.3480909,122.156568 36.6687799,121.835879 L39.1210738,119.383585 Z M41.8999155,124.320669 C42.3533581,124.320669 42.720946,124.686235 42.720946,125.144267 C42.720946,125.599128 42.3534382,125.967865 41.8999155,125.967865 L38.4318482,125.967865 C37.9784055,125.967865 37.6108177,125.602299 37.6108177,125.144267 C37.6108177,124.689407 37.9783255,124.320669 38.4318482,124.320669 L41.8999155,124.320669 Z M40.2858169,129.740206 C40.6064493,130.060838 40.6078789,130.579256 40.2840016,130.903134 C39.9623667,131.224769 39.4417628,131.225638 39.1210738,130.904949 L36.6687799,128.452655 C36.3481475,128.132023 36.3467179,127.613604 36.6705952,127.289727 C36.9922301,126.968092 37.512834,126.967223 37.833523,127.287912 L40.2858169,129.740206 Z M35.2242952,132.467504 C35.2242952,132.920946 34.8587291,133.288534 34.4006974,133.288534 C33.9458369,133.288534 33.5770996,132.921026 33.5770996,132.467504 L33.5770996,128.999436 C33.5770996,128.545994 33.9426657,128.178406 34.4006974,128.178406 C34.8555579,128.178406 35.2242952,128.545914 35.2242952,128.999436 L35.2242952,132.467504 Z M29.680321,130.904949 C29.3596886,131.225581 28.8412704,131.227011 28.5173931,130.903134 C28.1957582,130.581499 28.1948888,130.060895 28.5155778,129.740206 L30.9678717,127.287912 C31.2885041,126.967279 31.8069222,126.96585 32.1307995,127.289727 C32.4524345,127.611362 32.4533038,128.131966 32.1326149,128.452655 L29.680321,130.904949 Z M26.9014792,125.967865 C26.4480366,125.967865 26.0804487,125.602299 26.0804487,125.144267 C26.0804487,124.689407 26.4479565,124.320669 26.9014792,124.320669 L30.3695466,124.320669 C30.8229892,124.320669 31.1905771,124.686235 31.1905771,125.144267 C31.1905771,125.599128 30.8230693,125.967865 30.3695466,125.967865 L26.9014792,125.967865 Z M28.5155778,120.548328 C28.1949454,120.227696 28.1935158,119.709278 28.5173931,119.385401 C28.8390281,119.063766 29.359632,119.062896 29.680321,119.383585 L32.1326149,121.835879 C32.4532472,122.156512 32.4546769,122.67493 32.1307995,122.998807 C31.8091646,123.320442 31.2885607,123.321311 30.9678717,123.000622 L28.5155778,120.548328 Z" id="Rectangle-952-Copy-3" fill="#3EC1B9"></path>
                <path d="M190.658362,83.5384729 L189.262073,83.5384729 C188.564926,83.5384729 188,84.1067294 188,84.8077093 C188,85.5135763 188.565049,86.0769457 189.262073,86.0769457 L190.658362,86.0769457 L190.658362,87.4732347 C190.658362,88.1703816 191.226619,88.7353081 191.927599,88.7353081 C192.633466,88.7353081 193.196835,88.1702586 193.196835,87.4732347 L193.196835,86.0769457 L194.593124,86.0769457 C195.290271,86.0769457 195.855198,85.5086892 195.855198,84.8077093 C195.855198,84.1018423 195.290148,83.5384729 194.593124,83.5384729 L193.196835,83.5384729 L193.196835,82.1421839 C193.196835,81.445037 192.628579,80.8801105 191.927599,80.8801105 C191.221732,80.8801105 190.658362,81.44516 190.658362,82.1421839 L190.658362,83.5384729 Z" id="Rectangle-89-Copy-11" fill="#00A299"></path>
                <path d="M152.658362,25.5384729 L151.262073,25.5384729 C150.564926,25.5384729 150,26.1067294 150,26.8077093 C150,27.5135763 150.565049,28.0769457 151.262073,28.0769457 L152.658362,28.0769457 L152.658362,29.4732347 C152.658362,30.1703816 153.226619,30.7353081 153.927599,30.7353081 C154.633466,30.7353081 155.196835,30.1702586 155.196835,29.4732347 L155.196835,28.0769457 L156.593124,28.0769457 C157.290271,28.0769457 157.855198,27.5086892 157.855198,26.8077093 C157.855198,26.1018423 157.290148,25.5384729 156.593124,25.5384729 L155.196835,25.5384729 L155.196835,24.1421839 C155.196835,23.445037 154.628579,22.8801105 153.927599,22.8801105 C153.221732,22.8801105 152.658362,23.44516 152.658362,24.1421839 L152.658362,25.5384729 Z" id="Rectangle-89-Copy-13" fill="#97D5D2"></path>
                <path d="M11.8365991,112.500025 C9.72452228,112.500025 8,110.828143 8,108.750012 C8,106.671881 9.72452228,105 11.8365991,105 C13.9486759,105 15.6731982,106.671881 15.6731982,108.750012 C15.6731982,110.828143 13.9486759,112.500025 11.8365991,112.500025 Z M11.8365991,110.500025 C12.8577431,110.500025 13.6731982,109.709461 13.6731982,108.750012 C13.6731982,107.790563 12.8577431,107 11.8365991,107 C10.8154551,107 10,107.790563 10,108.750012 C10,109.709461 10.8154551,110.500025 11.8365991,110.500025 Z" id="Oval-86-Copy-4" fill="#00A299" fill-rule="nonzero"></path>
                <ellipse id="Oval-606-Copy-2" fill="#56CAC3" cx="180.5" cy="98.5142857" rx="3.5" ry="3.51428571"></ellipse>
                <ellipse id="Oval-606-Copy-3" fill="#80DFD9" cx="180.006098" cy="49.0142857" rx="2.00609756" ry="2.01428571"></ellipse>
                <ellipse id="Oval-606-Copy-4" fill="#80DFD9" cx="2.00609756" cy="90.0142857" rx="2.00609756" ry="2.01428571"></ellipse>
                <ellipse id="Oval-606-Copy-6" fill="#80DFD9" cx="36.0060976" cy="49.0142857" rx="2.00609756" ry="2.01428571"></ellipse>
                <ellipse id="Oval-606-Copy-5" fill="#80DFD9" cx="54.0060976" cy="127.014286" rx="2.00609756" ry="2.01428571"></ellipse>
            </g>
        </g>
    </g>
</svg>