<?xml version="1.0" encoding="UTF-8" standalone="no"?>
<svg width="210px" height="47px" viewBox="0 0 210 47" version="1.1" xmlns="http://www.w3.org/2000/svg" xmlns:xlink="http://www.w3.org/1999/xlink">
    <!-- Generator: Sketch 43 (38999) - http://www.bohemiancoding.com/sketch -->
    <title>Invitation_salesman</title>
    <desc>Created with Sketch.</desc>
    <defs>
        <linearGradient x1="50%" y1="0%" x2="50%" y2="100%" id="linearGradient-1">
            <stop stop-color="#40CC95" offset="0%"></stop>
            <stop stop-color="#00A299" offset="100%"></stop>
        </linearGradient>
    </defs>
    <g id="切图" stroke="none" stroke-width="1" fill="none" fill-rule="evenodd">
        <g id="Artboard-2" transform="translate(-1460.000000, -158.000000)" fill="url(#linearGradient-1)">
            <path d="M1471.19209,195.37526 L1472.74517,183.551975 L1471.48791,183.551975 L1471.48791,179.081601 L1476.98534,179.081601 C1477.10039,178.821031 1477.26063,178.519752 1477.46606,178.177755 C1477.6715,177.835757 1478.1933,177.501907 1479.03147,177.176195 L1471.83304,177.176195 L1471.83304,160.12526 L1474.81595,160.12526 L1476.04856,158 L1483.04978,158 L1482.08834,160.12526 L1488.02952,160.12526 L1488.02952,173.121102 L1482.80326,177.176195 L1481.71856,177.176195 C1482.75396,177.583335 1483.38669,178.047468 1483.61678,178.568607 L1483.8633,179.081601 L1490.05099,179.081601 L1488.37465,183.551975 L1479.40126,183.551975 L1479.03147,185.139813 L1488.54721,185.139813 L1488.54721,191.882017 L1483.04978,196.010395 L1479.22869,196.010395 L1479.22869,191.882017 L1482.08834,191.882017 L1482.08834,189.219335 L1478.53843,189.219335 L1477.37978,196.156965 L1472.74517,196.156965 L1476.31974,198.111227 L1506.14886,198.111227 L1503.58504,203.58316 L1472.49865,203.58316 L1468.94874,201.360187 L1461.87356,205 L1461.87356,176.321206 L1460,176.321206 L1460,170.60499 L1468.94874,170.60499 L1468.94874,194.178274 L1471.19209,195.37526 Z M1481.71856,166.623181 L1481.71856,164.131497 L1478.144,164.131497 L1478.144,166.623181 L1481.71856,166.623181 Z M1481.71856,170.60499 L1478.144,170.60499 L1478.144,173.121102 L1481.71856,173.121102 L1481.71856,170.60499 Z M1464.93043,158.244283 C1465.68644,158.244283 1466.45886,158.451921 1467.24774,158.867204 C1468.03661,159.282486 1468.65291,159.868759 1469.09665,160.62604 C1469.54039,161.38332 1469.76226,162.185373 1469.76226,163.032225 C1469.74582,163.895361 1469.52396,164.697415 1469.09665,165.43841 C1468.66934,166.179404 1468.08181,166.765677 1467.33402,167.197245 C1466.58623,167.628814 1465.78505,167.836452 1464.93043,167.820166 C1464.05939,167.820166 1463.25409,167.608457 1462.51452,167.185031 C1461.77495,166.761606 1461.18742,166.175333 1460.75189,165.426195 C1460.31637,164.677058 1460.0945,163.883147 1460.08628,163.044439 C1460.07807,162.20573 1460.30404,161.403677 1460.76422,160.638254 C1461.20796,159.872831 1461.82015,159.286558 1462.6008,158.879418 C1463.38146,158.472278 1464.158,158.260568 1464.93043,158.244283 Z M1490.98778,158.390852 L1497.5206,158.390852 L1497.00291,160.12526 L1506.34608,160.12526 L1504.2753,165.0842 L1495.72099,165.0842 L1495.2033,167.014033 L1488.54721,167.014033 L1490.98778,158.390852 Z M1494.26652,181.64657 L1489.68121,168.137734 L1496.36195,168.137734 L1497.61921,172.705821 L1498.95043,167.014033 L1505.28604,167.014033 L1501.19378,180.767152 L1505.50791,196.010395 L1498.95043,196.010395 L1497.44665,189.903326 L1495.2033,196.156965 L1488.79373,196.156965 L1494.26652,181.64657 Z M1540.73191,171.459979 L1530.35335,171.459979 L1530.35335,166.843035 L1540.73191,166.843035 L1540.73191,164.668919 L1530.52591,164.668919 L1530.52591,160.076403 L1540.73191,160.076403 L1540.73191,158.097713 L1548.54665,158.097713 L1548.5713,160.076403 L1560.15782,160.076403 L1557.81586,164.668919 L1548.5713,164.668919 L1548.5713,166.843035 L1560.03456,166.843035 L1557.71726,171.459979 L1548.5713,171.459979 L1548.5713,173.511954 L1560.33039,173.511954 L1557.98843,178.031185 L1529.73704,178.031185 L1529.73704,173.511954 L1540.73191,173.511954 L1540.73191,171.459979 Z M1530.18078,203.705301 L1530.18078,179.765593 L1559.49221,179.765593 L1559.49221,199.112786 L1551.94865,203.607588 L1544.28182,203.607588 L1544.28182,199.112786 L1551.65282,199.112786 L1551.65282,184.18711 L1537.99552,184.18711 L1537.99552,186.434511 L1551.08582,186.434511 L1549.95182,190.172037 L1537.99552,190.147609 L1537.99552,192.297297 L1550.42021,192.297297 L1549.38482,196.010395 L1537.99552,196.010395 L1537.99552,200.236486 L1537.65039,200.407484 L1530.18078,203.705301 Z M1514.72387,171.704262 L1525.29965,171.704262 L1525.29965,197.549376 L1528.99748,197.549376 L1526.26109,203.387734 L1517.48492,203.387734 L1517.48492,177.54262 L1514.72387,177.54262 L1514.72387,171.704262 Z M1521.55252,158.464137 C1522.27566,158.464137 1523.01111,158.663633 1523.75889,159.06263 C1524.50668,159.461627 1525.09011,160.0194 1525.5092,160.735967 C1525.92829,161.452533 1526.13783,162.209802 1526.13783,163.007796 C1526.12139,163.822076 1525.91185,164.583416 1525.5092,165.29184 C1525.10654,166.000263 1524.54777,166.558037 1523.83285,166.965177 C1523.11793,167.372317 1522.35783,167.567741 1521.55252,167.551455 C1520.73078,167.551455 1519.96246,167.347888 1519.24755,166.940748 C1518.53263,166.533608 1517.97796,165.983978 1517.58352,165.29184 C1517.18909,164.599702 1516.98776,163.842433 1516.97955,163.02001 C1516.97133,162.197588 1517.17265,161.436247 1517.58352,160.735967 C1517.9944,160.0194 1518.57782,159.465698 1519.33383,159.074844 C1520.08983,158.68399 1520.82939,158.480423 1521.55252,158.464137 Z M1592.27565,158.56185 L1614.38865,158.56185 L1614.4133,163.349792 L1610.34569,174.00052 L1610.34569,176.980769 L1614.85704,176.980769 L1612.58904,182.452703 L1610.34569,182.452703 L1610.34569,198.331081 L1603.96078,203.58316 L1593.9027,203.58316 L1593.9027,198.331081 L1602.95004,198.331081 L1602.95004,182.452703 L1591.41283,182.452703 L1591.41283,176.980769 L1602.95004,176.980769 L1602.92539,173.194387 L1606.59856,164.058212 L1592.27565,164.058212 L1592.27565,158.56185 Z M1591.97983,162.690229 L1590.15557,168.308732 L1589.04622,168.284304 L1589.07087,188.462058 L1585.02792,194.227131 L1592.05378,203.705301 L1583.49948,203.705301 L1580.83705,200.236486 L1578.42113,203.705301 L1569.76822,203.705301 L1576.20244,194.227131 L1571.839,188.535343 L1571.81435,168.284304 L1570.21196,168.284304 L1570.21196,162.714657 L1571.81435,162.714657 L1571.81435,158.268711 L1578.96348,158.268711 L1578.96348,162.714657 L1581.74918,162.714657 L1581.74918,158.390852 L1589.04622,158.390852 L1589.04622,162.714657 L1591.97983,162.690229 Z M1578.98813,168.284304 L1578.98813,186.068087 L1580.44261,187.997921 L1581.74918,186.068087 L1581.74918,168.284304 L1578.98813,168.284304 Z M1656.29339,189.170478 L1670,203.754158 L1659.67074,203.754158 L1651.36296,194.837838 L1643.59753,203.72973 L1633.76131,203.72973 L1646.33392,189.390333 L1637.04005,179.37474 L1647.09813,179.37474 L1651.2397,183.77183 L1657.99439,176.052495 L1636.27583,176.076923 L1630.87701,203.192308 L1623.06227,203.192308 L1630.33466,166.672037 L1624.17162,166.672037 L1624.17162,161.053534 L1631.44401,161.053534 L1632.03566,158.024428 L1639.8504,158.024428 L1639.25874,161.053534 L1669.01391,161.053534 L1666.45009,166.672037 L1638.1494,166.672037 L1637.38518,170.556133 L1667.85526,170.556133 L1667.85526,175.881497 L1656.29339,189.170478 Z" id="Invitation_salesman"></path>
        </g>
    </g>
</svg>