<?xml version="1.0" encoding="UTF-8" standalone="no"?>
<svg width="210px" height="48px" viewBox="0 0 210 48" version="1.1" xmlns="http://www.w3.org/2000/svg" xmlns:xlink="http://www.w3.org/1999/xlink">
    <!-- Generator: Sketch 43 (38999) - http://www.bohemiancoding.com/sketch -->
    <title>Invitation_manager</title>
    <desc>Created with Sketch.</desc>
    <defs>
        <linearGradient x1="50%" y1="0%" x2="50%" y2="100%" id="linearGradient-1">
            <stop stop-color="#40CC95" offset="0%"></stop>
            <stop stop-color="#00A299" offset="100%"></stop>
        </linearGradient>
    </defs>
    <g id="切图" stroke="none" stroke-width="1" fill="none" fill-rule="evenodd">
        <g id="Artboard-2" transform="translate(-1460.000000, -73.000000)" fill="url(#linearGradient-1)">
            <path d="M1471.27414,111.272422 L1472.83861,99.3228082 L1471.57214,99.3228082 L1471.57214,94.8046692 L1477.10987,94.8046692 C1477.22576,94.5413155 1477.38717,94.2368174 1477.59412,93.8911656 C1477.80106,93.5455139 1478.32668,93.2080971 1479.17101,92.878905 L1471.9198,92.878905 L1471.9198,75.6457844 L1474.92458,75.6457844 L1476.16622,73.4978167 L1483.21877,73.4978167 L1482.25029,75.6457844 L1488.23502,75.6457844 L1488.23502,88.7804838 L1482.97044,92.878905 L1481.87779,92.878905 C1482.92078,93.2903951 1483.55815,93.7594868 1483.78993,94.2861942 L1484.03826,94.8046692 L1490.27132,94.8046692 L1488.58268,99.3228082 L1479.5435,99.3228082 L1479.17101,100.927612 L1488.75651,100.927612 L1488.75651,107.741854 L1483.21877,111.914343 L1479.36967,111.914343 L1479.36967,107.741854 L1482.25029,107.741854 L1482.25029,105.050722 L1478.67435,105.050722 L1477.5072,112.062479 L1472.83861,112.062479 L1476.43939,114.037622 L1506.48721,114.037622 L1503.90458,119.568022 L1472.59029,119.568022 L1469.01435,117.321297 L1461.8873,121 L1461.8873,92.01478 L1460,92.01478 L1460,86.2374875 L1469.01435,86.2374875 L1469.01435,110.062647 L1471.27414,111.272422 Z M1481.87779,82.2131341 L1481.87779,79.6948271 L1478.27702,79.6948271 L1478.27702,82.2131341 L1481.87779,82.2131341 Z M1481.87779,86.2374875 L1478.27702,86.2374875 L1478.27702,88.7804838 L1481.87779,88.7804838 L1481.87779,86.2374875 Z M1464.96658,73.7447095 C1465.72813,73.7447095 1466.50622,73.9545663 1467.30088,74.3742863 C1468.09553,74.7940062 1468.71635,75.3865431 1469.16334,76.1519147 C1469.61034,76.9172864 1469.83383,77.7279098 1469.83383,78.5838093 C1469.81728,79.4561683 1469.59378,80.2667917 1469.16334,81.0157038 C1468.7329,81.7646158 1468.14106,82.3571527 1467.38779,82.7933323 C1466.63452,83.2295118 1465.82746,83.4393686 1464.96658,83.422909 C1464.08915,83.422909 1463.27795,83.2089374 1462.53296,82.7809876 C1461.78797,82.3530379 1461.19612,81.760501 1460.7574,81.0033591 C1460.31869,80.2462173 1460.09519,79.4438236 1460.08692,78.5961539 C1460.07864,77.7484842 1460.30627,76.9378608 1460.76982,76.1642594 C1461.21681,75.3906579 1461.83349,74.798121 1462.61987,74.3866309 C1463.40625,73.9751408 1464.18848,73.7611691 1464.96658,73.7447095 Z M1491.21497,73.8928452 L1497.79569,73.8928452 L1497.2742,75.6457844 L1506.68587,75.6457844 L1504.59991,80.6577092 L1495.98289,80.6577092 L1495.4614,82.6081626 L1488.75651,82.6081626 L1491.21497,73.8928452 Z M1494.51774,97.397044 L1489.89882,83.7438697 L1496.62854,83.7438697 L1497.89502,88.3607659 L1499.236,82.6081626 L1505.61806,82.6081626 L1501.49579,96.5082298 L1505.84155,111.914343 L1499.236,111.914343 L1497.72119,105.742022 L1495.4614,112.062479 L1489.00484,112.062479 L1494.51774,97.397044 Z M1541.32381,87.1016124 L1530.86915,87.1016124 L1530.86915,82.4353376 L1541.32381,82.4353376 L1541.32381,80.2379913 L1531.04298,80.2379913 L1531.04298,75.5964058 L1541.32381,75.5964058 L1541.32381,73.5965738 L1549.19584,73.5965738 L1549.22067,75.5964058 L1560.89214,75.5964058 L1558.53301,80.2379913 L1549.22067,80.2379913 L1549.22067,82.4353376 L1560.76798,82.4353376 L1558.43368,87.1016124 L1549.22067,87.1016124 L1549.22067,89.1755123 L1561.06597,89.1755123 L1558.70684,93.7430299 L1530.24833,93.7430299 L1530.24833,89.1755123 L1541.32381,89.1755123 L1541.32381,87.1016124 Z M1530.69532,119.691468 L1530.69532,95.4959691 L1560.22165,95.4959691 L1560.22165,115.049882 L1552.62278,119.592711 L1544.89975,119.592711 L1544.89975,115.049882 L1552.32479,115.049882 L1552.32479,99.9647296 L1538.56735,99.9647296 L1538.56735,102.236144 L1551.75363,102.236144 L1550.61132,106.013604 L1538.56735,105.988915 L1538.56735,108.161572 L1551.08314,108.161572 L1550.04016,111.914343 L1538.56735,111.914343 L1538.56735,116.18559 L1538.21969,116.358415 L1530.69532,119.691468 Z M1515.12509,87.3485053 L1525.77841,87.3485053 L1525.77841,113.469768 L1529.50334,113.469768 L1526.74689,119.370507 L1517.90637,119.370507 L1517.90637,93.2492442 L1515.12509,93.2492442 L1515.12509,87.3485053 Z M1522.0038,73.9669131 C1522.73224,73.9669131 1523.47308,74.1685402 1524.22635,74.5718005 C1524.97962,74.9750609 1525.56732,75.5387939 1525.98949,76.2630165 C1526.41165,76.9872392 1526.62272,77.7525993 1526.62272,78.55912 C1526.60617,79.3821002 1526.39509,80.1515752 1525.98949,80.8675681 C1525.58388,81.5835609 1525.02101,82.1472939 1524.30085,82.5587841 C1523.58069,82.9702742 1522.81502,83.1677865 1522.0038,83.1513269 C1521.17604,83.1513269 1520.40208,82.9455849 1519.68193,82.5340948 C1518.96177,82.1226046 1518.40303,81.5671013 1518.0057,80.8675681 C1517.60838,80.1680349 1517.40558,79.4026747 1517.3973,78.5714646 C1517.38902,77.7402546 1517.59182,76.9707796 1518.0057,76.2630165 C1518.41959,75.5387939 1519.00729,74.9791757 1519.76884,74.5841452 C1520.53039,74.1891147 1521.27537,73.9833727 1522.0038,73.9669131 Z M1580.65516,98.1377226 L1590.14133,98.1377226 L1590.14133,83.0031912 L1598.68386,83.0031912 L1598.68386,86.7312731 L1615.17291,86.7312731 L1612.81378,92.0394693 L1598.68386,92.0394693 L1598.68386,98.1377226 L1615.09841,98.1377226 L1615.09841,114.136379 L1608.21969,119.395197 L1580.65516,119.419886 L1580.65516,98.1377226 Z M1588.12987,114.136379 L1607.72304,114.136379 L1607.67337,103.39654 L1588.12987,103.39654 L1588.12987,114.136379 Z M1578.54437,81.3983877 L1578.54437,116.629997 L1570.67233,120.111186 L1570.67233,75.8186094 L1588.87486,75.8186094 C1589.07352,75.4729577 1589.45429,74.925684 1590.01717,74.176772 C1590.58005,73.4278599 1591.57336,73.0369502 1592.99712,73.004031 C1594.42088,72.9711118 1595.49696,73.1398202 1596.2254,73.5101613 C1596.95383,73.8805024 1597.71537,74.6499774 1598.51003,75.8186094 L1615.42124,75.8186094 L1612.91311,81.3983877 L1578.54437,81.3983877 Z M1627.48606,73.8681559 L1627.48606,73.8187774 L1635.78025,73.8187774 L1635.78025,94.0393013 L1670,94.0393013 L1667.06972,100.112865 L1635.78025,100.112865 L1635.75542,113.3957 L1643.40395,113.3957 L1640.54817,119.642089 L1627.46123,119.642089 L1627.41156,100.112865 L1624.90344,100.112865 L1624.90344,94.0393013 L1627.41156,94.0393013 L1627.41156,73.8681559 L1627.48606,73.8681559 Z M1669.52817,74.0656702 L1652.4183,89.1755123 L1639.60452,89.1755123 L1657.80704,74.0656702 L1669.52817,74.0656702 Z M1669.95033,119.395197 L1658.2292,119.395197 L1637.44406,102.507726 L1649.16519,102.507726 L1669.95033,119.395197 Z" id="Invitation_manager"></path>
        </g>
    </g>
</svg>